<svg width="166" height="53" viewBox="0 0 166 53" fill="none" xmlns="http://www.w3.org/2000/svg">
<g clip-path="url(#clip0_26_1472)">
<path d="M52.0007 14.691C51.9992 14.9381 51.9773 15.1846 51.9352 15.428C51.8871 15.6762 51.8186 15.92 51.7305 16.1569C51.4719 16.833 51.0854 17.4531 50.5922 17.983C50.5227 18.0634 50.4489 18.1399 50.3711 18.2123C50.2117 18.3783 50.0421 18.5342 49.8634 18.6791C49.7733 18.7609 49.6914 18.8346 49.5931 18.9083L49.1755 19.2277L48.7333 19.5225C48.5777 19.629 48.4139 19.7272 48.2502 19.8173C48.0864 19.9074 47.9144 20.0139 47.7342 20.1039L43.8608 22.1184H43.8117L43.173 21.9874C38.713 21.1229 34.0937 21.6963 29.9805 23.6252L28.8341 24.2066C28.7986 23.9186 28.7068 23.6403 28.5638 23.3877C28.3562 23.0335 28.0702 22.7315 27.7276 22.5051C27.3851 22.2787 26.9952 22.1338 26.5879 22.0816C26.1806 22.0294 25.7668 22.0713 25.3783 22.204C24.9897 22.3368 24.6368 22.5568 24.3465 22.8472L24.5103 23.142C25.1654 23.142 25.5421 23.7235 25.1245 24.223C25.0262 24.3458 24.9116 24.4605 24.8051 24.5751L22.3484 23.3058C17.9859 21.1912 13.0364 20.614 8.30431 21.668H8.24698C7.05139 21.0457 5.84765 20.4397 4.64387 19.8255L4.09517 19.5307C3.73485 19.326 3.40732 19.1213 3.09614 18.9083L2.76036 18.6627C2.64572 18.5808 2.53925 18.4907 2.44098 18.4088L2.15439 18.1713C2.0503 18.0849 1.95185 17.9919 1.85959 17.8929C1.71219 17.7455 1.57297 17.5981 1.44195 17.4507C1.32818 17.3258 1.22154 17.1946 1.12257 17.0576L1.0325 16.943C0.95867 16.8459 0.890322 16.7447 0.827775 16.64C0.63039 16.339 0.465699 16.0178 0.336457 15.6819C0.336457 15.6 0.279154 15.5263 0.254587 15.4444C0.23002 15.3625 0.205389 15.2888 0.189011 15.2069V15.0432C0.155255 14.9144 0.133362 14.7828 0.123535 14.6501C0.123535 14.5682 0.123535 14.4863 0.123535 14.4044C0.119297 14.3253 0.119297 14.246 0.123535 14.1669C0.123535 14.0605 0.123535 13.954 0.123535 13.8558C0.115072 13.7768 0.115072 13.6972 0.123535 13.6183V13.4381C0.123535 13.348 0.1235 13.2579 0.189011 13.1679C0.213075 13.0536 0.245925 12.9413 0.287275 12.8321C0.329346 12.7093 0.378608 12.5889 0.434721 12.4718C0.500232 12.3244 0.573949 12.177 0.655839 12.0296C0.748816 11.86 0.855648 11.6984 0.975221 11.5465C1.06301 11.4178 1.15872 11.2947 1.26182 11.178C1.38465 11.0387 1.50746 10.8995 1.64667 10.7685C1.82248 10.5888 2.00844 10.4193 2.20357 10.2608C2.36735 10.1298 2.53932 9.99874 2.71948 9.87591C2.89963 9.75307 3.08793 9.62204 3.28447 9.49921C8.4599 6.33007 16.6079 6.22362 22.3566 9.14709L26.4511 11.268L29.956 9.47464C35.459 6.67401 43.5251 6.8296 48.5859 9.83496C49.1759 10.1757 49.7253 10.5823 50.2237 11.0469L50.4448 11.2598C50.8302 11.6379 51.1609 12.0679 51.4274 12.5373C51.4873 12.6311 51.5394 12.7297 51.583 12.8321C51.7425 13.1537 51.8582 13.4952 51.927 13.8476C51.9513 13.9416 51.9677 14.0374 51.9761 14.1342C51.9801 14.2133 51.9801 14.2925 51.9761 14.3716V14.6337L52.0007 14.691Z" fill="#FFCBA6"/>
<path d="M52.0007 28.5795C51.8697 30.5367 50.3138 32.4939 47.4149 33.9679C40.7081 37.3745 34.075 40.8221 27.4256 44.2614C26.9712 44.5189 26.4976 44.7407 26.0089 44.9247C25.5202 44.7407 25.0465 44.5189 24.5922 44.2614C17.9428 40.8221 11.3097 37.3745 4.60289 33.9679C1.70399 32.4939 0.148108 30.5367 0.0170842 28.5795C0.0170842 28.4895 0.0170842 28.3994 0.0170842 28.3093V14.1915C0.00488471 14.3523 0.00488471 14.5138 0.0170842 14.6747C0.0269112 14.8074 0.0488035 14.939 0.08256 15.0677V15.2315C0.08256 15.3134 0.082624 15.3871 0.148136 15.469C0.213648 15.5509 0.19725 15.6246 0.230006 15.7065C0.359247 16.0424 0.523939 16.3636 0.721324 16.6646C0.78387 16.7693 0.852218 16.8705 0.926048 16.9676L1.01612 17.0822C1.11509 17.2191 1.22173 17.3504 1.3355 17.4753C1.46652 17.6227 1.60574 17.7701 1.75314 17.9175C1.8454 18.0165 1.94385 18.1095 2.04793 18.1959L2.33453 18.4334C2.4328 18.5153 2.53926 18.6054 2.65391 18.6873L2.98969 18.9329C3.30087 19.1458 3.6284 19.3506 3.98872 19.5553L4.53741 19.8501C5.74119 20.4643 6.94494 21.0702 8.14053 21.6926C10.286 22.7817 12.4234 23.8873 14.5525 24.9682C17.8854 26.6879 17.2795 30.0044 20.6042 31.7241C21.2429 32.0599 19.1138 33.9024 19.4659 34.017C20.1865 34.2463 27.0817 30.8151 28.3837 30.1354L43.7544 22.1266C45.4217 22.4927 47.0235 23.1112 48.504 23.961C50.7724 25.2794 51.9024 26.9172 52.0007 28.5795Z" fill="white"/>
<path d="M51.9925 14.429C51.9925 14.5109 51.9925 14.5928 51.9925 14.6747C51.9826 14.8074 51.9607 14.939 51.927 15.0677V15.2315C51.927 15.3134 51.886 15.3871 51.8615 15.469C51.8369 15.5509 51.8123 15.6246 51.7796 15.7065C51.6503 16.0424 51.4856 16.3636 51.2882 16.6646C51.2257 16.7693 51.1573 16.8705 51.0835 16.9676L50.9934 17.0822C50.8945 17.2191 50.7878 17.3504 50.674 17.4753C50.543 17.6227 50.4038 17.7701 50.2564 17.9175C50.1641 18.0165 50.0657 18.1095 49.9616 18.1959L49.675 18.4334C49.5767 18.5153 49.4703 18.6054 49.3556 18.6873L49.0199 18.9329C48.7087 19.1458 48.3811 19.3506 48.0208 19.5553L47.4722 19.8501C46.2684 20.4643 45.0646 21.0702 43.869 21.6926L43.2466 22.012C41.3058 22.9947 39.3814 23.9937 37.457 24.9846L27.4829 30.1437C26.8441 30.4794 19.949 33.9188 19.5969 34.0334C18.8762 34.2627 21.0709 32.8378 20.9481 31.372C20.5141 25.8936 13.3815 24.8208 8.25515 22.143C6.58778 22.509 4.98612 23.1276 3.50556 23.9773C1.31091 25.2794 0.180787 26.9172 0.0825195 28.5796C0.213543 30.5367 1.76953 32.4939 4.66843 33.9679C11.3752 37.3745 18.0082 40.8221 24.6576 44.2615C25.112 44.5189 25.5857 44.7407 26.0744 44.9248C26.5631 44.7407 27.0367 44.5189 27.4911 44.2615C34.1405 40.8221 40.7736 37.3745 47.4804 33.9679C50.3793 32.4939 51.9352 30.5367 52.0662 28.5796C52.0662 28.4895 52.0662 28.3994 52.0662 28.3093V14.429H51.9925Z" fill="white"/>
</g>
<g clip-path="url(#clip1_26_1472)">
<path d="M83.06 11.91H71.3V21.23H81.54V27.16H71.3V41.05H63V5.97998H83.92L83.06 11.91Z" fill="white"/>
<path d="M107.3 35.52C107.627 36.0237 108.118 36.3984 108.69 36.58L107.02 41.8C105.627 41.7294 104.265 41.3683 103.02 40.74C101.929 40.0924 101.071 39.1156 100.57 37.95C98.8101 40.6166 96.1067 41.95 92.4601 41.95C91.2949 42.007 90.1302 41.8302 89.0345 41.4301C87.9387 41.0299 86.9342 40.4145 86.0801 39.62C85.2837 38.8268 84.6609 37.8767 84.2512 36.8301C83.8415 35.7834 83.6538 34.663 83.7001 33.54C83.6323 32.2351 83.8935 30.934 84.4596 29.7564C85.0258 28.5787 85.8787 27.5621 86.94 26.8C89.1 25.25 92.2301 24.47 96.3101 24.47H99.05V23.31C99.05 21.7233 98.7167 20.6333 98.05 20.04C97.0088 19.3422 95.7575 19.0276 94.5101 19.15C93.437 19.174 92.3687 19.3012 91.3201 19.53C90.0181 19.7869 88.7325 20.1208 87.4701 20.53L85.6401 15.26C87.3245 14.6215 89.061 14.1297 90.8301 13.79C92.458 13.473 94.1116 13.3057 95.7701 13.29C99.6234 13.29 102.447 14.0833 104.24 15.67C106.033 17.2566 106.927 19.6367 106.92 22.81V33.25C106.844 34.027 106.975 34.8103 107.3 35.52ZM97.1701 35.52C97.9267 35.0484 98.5606 34.4041 99.0201 33.64V28.83H97.0201C95.5901 28.7416 94.1671 29.0904 92.94 29.83C92.4849 30.1792 92.124 30.6364 91.89 31.1602C91.656 31.684 91.5564 32.2579 91.6001 32.83C91.5418 33.7442 91.8432 34.645 92.44 35.34C92.7385 35.6429 93.0978 35.8788 93.4944 36.0323C93.8909 36.1857 94.3155 36.2531 94.7401 36.23C95.5959 36.2419 96.4378 36.0132 97.1701 35.57V35.52Z" fill="white"/>
<path d="M128.5 13.78L127.24 21.53C126.441 21.3282 125.623 21.2109 124.8 21.18C124.116 21.1428 123.432 21.2706 122.808 21.5525C122.183 21.8344 121.635 22.2622 121.21 22.8C120.191 24.2553 119.508 25.9186 119.21 27.67V41.05H111.21V14.15H118.21L118.87 19.32C119.367 17.6383 120.322 16.1284 121.63 14.96C122.782 13.9398 124.271 13.3808 125.81 13.39C126.72 13.394 127.626 13.5253 128.5 13.78Z" fill="white"/>
<path d="M137.9 1.28997C138.759 2.16176 139.24 3.33633 139.24 4.55999C139.24 5.78364 138.759 6.95818 137.9 7.82997C137.444 8.26158 136.907 8.59798 136.32 8.81948C135.733 9.04098 135.107 9.14314 134.48 9.11998C133.857 9.1442 133.236 9.04242 132.653 8.82076C132.071 8.59909 131.539 8.2621 131.09 7.82997C130.243 6.95205 129.77 5.77981 129.77 4.55999C129.77 3.34016 130.243 2.16789 131.09 1.28997C131.539 0.857843 132.071 0.520847 132.653 0.299183C133.236 0.0775178 133.857 -0.0242309 134.48 -1.17745e-05C135.107 -0.0231687 135.733 0.078994 136.32 0.300495C136.907 0.521996 137.444 0.858364 137.9 1.28997ZM138.53 41.09H130.53V14.19H138.53V41.09Z" fill="white"/>
<path d="M151.76 38.05C151.845 40.436 151.383 42.8098 150.41 44.99C149.588 46.7349 148.335 48.2421 146.77 49.37C144.976 50.5985 143.025 51.5806 140.97 52.29L138.28 46.46C139.371 45.9831 140.407 45.3896 141.37 44.69C142.14 44.0808 142.742 43.2859 143.12 42.38C143.586 41.1623 143.8 39.8628 143.75 38.56V14.19H151.75L151.76 38.05ZM151.17 1.28999C152.034 2.15925 152.518 3.33477 152.518 4.56001C152.518 5.78524 152.034 6.96074 151.17 7.83C150.714 8.2616 150.177 8.598 149.59 8.8195C149.003 9.041 148.377 9.14316 147.75 9.12001C147.127 9.14308 146.506 9.04077 145.924 8.81916C145.342 8.59756 144.81 8.26118 144.36 7.83C143.513 6.95207 143.04 5.77983 143.04 4.56001C143.04 3.34018 143.513 2.16792 144.36 1.28999C144.815 0.866537 145.35 0.538647 145.934 0.325663C146.518 0.11268 147.139 0.018937 147.76 0.0499981C148.382 0.0215146 149.004 0.116416 149.589 0.329234C150.174 0.542051 150.712 0.868568 151.17 1.28999Z" fill="white"/>
<path d="M164.4 1.28996C165.259 2.16176 165.74 3.33633 165.74 4.55998C165.74 5.78363 165.259 6.95817 164.4 7.82997C163.943 8.26019 163.406 8.59571 162.819 8.81712C162.232 9.03854 161.607 9.14147 160.98 9.11998C160.356 9.14441 159.733 9.04276 159.149 8.82112C158.564 8.59948 158.031 8.26239 157.58 7.82997C156.74 6.9485 156.271 5.7776 156.271 4.55998C156.271 3.34237 156.74 2.17143 157.58 1.28996C158.031 0.857549 158.564 0.520454 159.149 0.298814C159.733 0.077174 160.356 -0.0244426 160.98 -1.42802e-05C161.607 -0.0214999 162.232 0.0814294 162.819 0.302842C163.406 0.524255 163.943 0.859742 164.4 1.28996ZM165.03 41.09H157.03V14.19H165.03V41.09Z" fill="white"/>
</g>
<defs>
<clipPath id="clip0_26_1472">
<rect width="52" height="37.8495" fill="white" transform="translate(0 7.07526)"/>
</clipPath>
<clipPath id="clip1_26_1472">
<rect width="102.74" height="52.28" fill="white" transform="translate(63)"/>
</clipPath>
</defs>
</svg>
