
<svg xmlns="http://www.w3.org/2000/svg" viewBox="0 0 24 24">
  <circle className="opacity-25" cx="12" cy="12" r="10" stroke="currentColor" strokeWidth="4"></circle>
  <path
    className="opacity-75"
    fill="currentColor"
    d="M4 12a8 8 0 018-8V0C5.373 0 0 5.373 0 12h4zm2 5.291A7.962 7.962 0 014 12H0c0 3.042 1.135 5.824 3 7.938l3-2.647zm12-5.291c0 3.042-1.135 5.824-3 7.938l-3-2.647A7.962 7.962 0 0020 12h-4zm-5-7.938C18.865 6.176 20 8.958 20 12h4c0-6.627-5.373-12-12-12v4z"
  ></path>
</svg>
