<svg width="311" height="311" viewBox="0 0 311 311" fill="none" xmlns="http://www.w3.org/2000/svg">
<path d="M252.656 178.932C249.785 179.305 246.891 179.476 243.995 179.445C238.366 179.85 232.721 179.85 227.186 180.145L182.464 182.462C182.23 183.846 182.464 185.292 183.77 185.79C188 187.345 192.229 189.008 196.459 190.626C198.48 191.434 198.884 192.336 198.014 194.249C197.516 195.26 197.003 196.27 196.459 197.266C196.054 197.981 196.163 198.385 196.77 198.976C198.776 200.998 200.89 203.003 202.803 205.196C204.125 206.596 205.431 207.513 207.033 207C220.686 206.347 252.128 203.688 263.837 202.972C265.858 202.879 266.947 202.366 267.071 201.262C266.947 201.06 257.073 184.499 254.071 179.601C253.574 179.274 253.465 178.777 252.656 178.932Z" fill="#FFDE82"/>
<path d="M276.137 140.399C278.096 135.734 278.454 127.679 276.945 123.885C274.862 118.256 266.978 117.961 264.241 125.44C262.217 130.714 262.146 136.538 264.039 141.861C265.905 146.51 272.965 147.91 276.137 140.399Z" fill="#FFDE82"/>
<path d="M295.45 102.737C293.771 94.7444 284.923 94.6511 283.01 102.131C281.455 107.666 283.01 112.907 285.016 117.945C285.477 119.13 286.326 120.124 287.425 120.765C288.523 121.406 289.806 121.656 291.065 121.475C292.371 121.213 293.553 120.526 294.428 119.522C295.303 118.518 295.821 117.253 295.901 115.923C296.459 111.532 296.307 107.08 295.45 102.737Z" fill="#FFDE82"/>
<path d="M269.279 104.945C271.702 102.443 273.438 99.3581 274.318 95.9884C276.152 90.6236 271.534 83.3773 265.749 86.6584C262.033 88.7732 258.612 97.3257 259.312 101.353C259.436 102.448 259.864 103.487 260.548 104.351C261.231 105.216 262.143 105.872 263.18 106.245C264.217 106.619 265.337 106.695 266.415 106.466C267.493 106.236 268.485 105.709 269.279 104.945Z" fill="#FFDE82"/>
<path d="M293.257 146.541C293.904 146.571 294.548 146.444 295.135 146.172C295.723 145.899 296.235 145.49 296.631 144.977C297.026 144.464 297.292 143.864 297.405 143.227C297.519 142.59 297.478 141.934 297.285 141.317C296.772 139.202 292.34 135.361 290.132 135.097C289.473 134.965 288.792 134.995 288.147 135.184C287.502 135.373 286.913 135.715 286.429 136.181C285.944 136.647 285.58 137.223 285.367 137.86C285.153 138.497 285.097 139.176 285.203 139.839C285.203 142.623 290.785 146.541 293.257 146.541Z" fill="#FFDE82"/>
<path d="M53.5387 144.722C54.8331 144.623 56.0359 144.016 56.8861 143.035C57.7362 142.054 58.165 140.777 58.0793 139.482C58.1051 138.293 57.6664 137.14 56.8564 136.269C56.0463 135.398 54.9287 134.877 53.7408 134.817C51.4239 134.817 49.4179 137.336 49.4179 140.057C49.3538 141.22 49.7503 142.362 50.5215 143.235C51.2926 144.108 52.3765 144.642 53.5387 144.722Z" fill="#FFDE82"/>
<path d="M117.605 185.525C117.66 186.663 118.08 187.754 118.802 188.635C119.206 186.318 119.611 183.97 119.922 181.576C119.235 181.987 118.663 182.564 118.259 183.254C117.854 183.945 117.629 184.725 117.605 185.525Z" fill="#FFDE82"/>
<path d="M126.359 185.821C126.299 184.707 125.871 183.645 125.142 182.801C124.413 181.956 123.425 181.378 122.332 181.156C121.819 184.53 121.819 184.748 120.777 190.019C121.429 190.283 122.138 190.374 122.835 190.283C123.532 190.192 124.194 189.922 124.756 189.499C125.318 189.077 125.761 188.516 126.042 187.871C126.323 187.227 126.432 186.52 126.359 185.821Z" fill="#FFDE82"/>
<path d="M76.1017 161.252C79.0251 161.127 81.342 159.23 81.342 156.727C81.3055 155.606 80.8303 154.545 80.0189 153.771C79.2074 152.997 78.1246 152.573 77.0036 152.59C75.778 152.71 74.6351 153.263 73.7802 154.149C72.9252 155.035 72.4141 156.197 72.3386 157.426C72.3759 158.418 72.7826 159.361 73.4787 160.068C74.1749 160.776 75.1104 161.198 76.1017 161.252Z" fill="#FFDE82"/>
<path d="M93.5332 210.607C92.4277 210.617 91.3665 211.043 90.5621 211.802C89.7576 212.56 89.2692 213.594 89.1948 214.697C89.2089 215.928 89.6637 217.113 90.4768 218.038C91.2899 218.962 92.4074 219.564 93.6265 219.735C94.7687 219.582 95.8198 219.029 96.5938 218.176C97.3679 217.322 97.815 216.222 97.8561 215.07C97.8687 213.907 97.4217 212.786 96.6123 211.95C95.8028 211.114 94.6964 210.632 93.5332 210.607Z" fill="#FFDE82"/>
<path d="M117.698 149.263C118.232 149.252 118.758 149.132 119.244 148.91C119.73 148.688 120.165 148.369 120.523 147.973C120.882 147.577 121.155 147.112 121.327 146.606C121.499 146.101 121.566 145.565 121.523 145.033C121.55 144.456 121.462 143.88 121.262 143.338C121.063 142.796 120.757 142.3 120.363 141.878C119.969 141.456 119.494 141.118 118.967 140.882C118.44 140.647 117.871 140.52 117.294 140.508C116.177 140.545 115.12 141.018 114.349 141.827C113.578 142.635 113.156 143.714 113.173 144.831C113.231 146.003 113.729 147.111 114.568 147.932C115.407 148.754 116.524 149.229 117.698 149.263Z" fill="#FFDE82"/>
<path d="M107.528 166.181C108.628 166.106 109.658 165.613 110.406 164.804C111.155 163.994 111.566 162.93 111.556 161.827C111.338 156.385 103.096 156.042 103.096 161.734C103.206 162.874 103.708 163.94 104.516 164.751C105.324 165.562 106.389 166.067 107.528 166.181Z" fill="#FFDE82"/>
<path d="M72.4785 206.922C71.4471 206.978 70.4761 207.426 69.7648 208.175C69.0534 208.924 68.6557 209.917 68.6532 210.95C68.6532 213.671 70.6592 214.868 73.6914 215.272C74.6156 215.217 75.4839 214.811 76.1194 214.138C76.755 213.465 77.1101 212.575 77.1124 211.649C77.0076 210.446 76.4881 209.317 75.6429 208.455C74.7976 207.593 73.6791 207.051 72.4785 206.922Z" fill="#FFDE82"/>
<path d="M76.506 116.53C76.3954 117.084 76.4053 117.655 76.5351 118.204C76.6648 118.754 76.9114 119.269 77.258 119.715C77.6047 120.161 78.0432 120.527 78.5439 120.788C79.0446 121.05 79.5957 121.2 80.1596 121.229C80.7236 121.259 81.2873 121.166 81.8124 120.958C82.3375 120.75 82.8116 120.432 83.2026 120.024C83.5937 119.617 83.8923 119.13 84.0784 118.597C84.2645 118.064 84.3336 117.496 84.281 116.934L82.726 113.016C82.1857 112.617 81.5311 112.405 80.86 112.409C80.2969 112.366 79.7309 112.44 79.1985 112.629C78.6661 112.817 78.1791 113.115 77.7689 113.504C77.3587 113.892 77.0344 114.362 76.8169 114.883C76.5994 115.404 76.4935 115.965 76.506 116.53Z" fill="#FFDE82"/>
<path d="M59.7898 172.712C58.7716 173.006 57.8385 173.539 57.0685 174.267C56.6363 174.698 56.3109 175.224 56.1181 175.804C55.9253 176.383 55.8705 176.999 55.9581 177.603C56.0457 178.208 56.2733 178.783 56.6227 179.284C56.972 179.784 57.4335 180.196 57.9704 180.487C60.8005 182.042 63.8172 179.974 63.8172 176.351C63.755 173.443 62.2 171.872 59.7898 172.712Z" fill="#FFDE82"/>
<path d="M87.4843 145.344C88.0402 145.41 88.6038 145.357 89.1379 145.19C89.672 145.022 90.1646 144.743 90.5832 144.372C91.0019 144 91.3371 143.544 91.5668 143.034C91.7965 142.523 91.9155 141.97 91.916 141.41C91.9024 140.327 91.4797 139.289 90.7327 138.504C89.9857 137.72 88.9698 137.247 87.8886 137.18C83.1303 137.18 82.6016 145.344 87.4843 145.344Z" fill="#FFDE82"/>
<path d="M85.525 179.181C87.7331 179.181 89.2414 177.47 89.2414 174.842C89.2925 174.367 89.2414 173.886 89.0917 173.432C88.9419 172.978 88.6969 172.561 88.3731 172.209C88.0492 171.857 87.654 171.579 87.2137 171.392C86.7735 171.205 86.2985 171.114 85.8204 171.126C84.7611 171.201 83.7661 171.662 83.0238 172.421C82.2816 173.181 81.8436 174.186 81.793 175.247C81.7878 176.257 82.1732 177.23 82.8686 177.964C83.564 178.697 84.5157 179.133 85.525 179.181Z" fill="#FFDE82"/>
<path d="M52.3413 199.147C51.4348 199.19 50.5754 199.563 49.9252 200.196C49.2749 200.829 48.8788 201.679 48.8114 202.584C48.9321 203.633 49.4441 204.599 50.2454 205.288C51.0467 205.977 52.0783 206.338 53.1343 206.3C53.5783 206.332 54.0239 206.269 54.4412 206.114C54.8585 205.959 55.2377 205.716 55.5531 205.402C55.8686 205.088 56.113 204.71 56.2698 204.294C56.4266 203.877 56.4921 203.432 56.462 202.988C56.3839 201.947 55.9164 200.974 55.1527 200.262C54.389 199.55 53.3852 199.152 52.3413 199.147Z" fill="#FFDE82"/>
<path d="M59.9919 115.923C60.9424 116.01 61.8909 115.739 62.6527 115.164C63.4145 114.589 63.935 113.751 64.1127 112.813C64.1532 112.26 64.0448 111.705 63.7987 111.208C63.5526 110.71 63.1778 110.287 62.7132 109.983C61.3914 110.699 60.3496 111.103 57.0685 112.502C56.9953 112.624 56.9626 112.766 56.9752 112.907C56.8664 114.213 58.2814 115.628 59.9919 115.923Z" fill="#FFDE82"/>
<path d="M228.787 269.122C228.967 269.042 229.112 268.898 229.191 268.718C228.692 268.413 228.172 268.143 227.636 267.909C227.232 268.018 226.828 268.111 226.221 268.313C226.517 267.816 226.517 267.707 226.626 267.614C226.735 267.52 226.719 267.505 226.828 267.505C226.517 267.303 226.221 267.209 225.926 267.007C225.813 266.911 225.67 266.858 225.522 266.858C225.373 266.858 225.23 266.911 225.117 267.007C224.309 267.412 223.407 267.816 222.489 268.22C222.442 268.295 222.417 268.381 222.417 268.469C222.417 268.557 222.442 268.643 222.489 268.718C222.709 268.909 222.949 269.076 223.205 269.215C223.5 269.215 223.904 269.013 224.2 269.013C224.495 269.013 224.402 269.122 224.511 269.122C224.511 269.418 224.402 269.62 224.402 269.822C224.941 270.013 225.461 270.253 225.957 270.537H226.05C227.026 270.201 227.948 269.724 228.787 269.122Z" fill="#FFDE82"/>
<path d="M241.383 266.012C241.694 266.323 242.285 266.214 242.689 266.121C243.563 265.912 244.388 265.531 245.115 265.001C245.317 264.799 245.519 264.706 245.612 264.504C245.115 264.302 244.508 264.099 244.057 263.897C243.898 264.008 243.718 264.083 243.527 264.118C243.337 264.153 243.141 264.147 242.953 264.099C243.062 263.897 243.062 263.695 243.155 263.493C242.671 263.297 242.203 263.063 241.756 262.793C240.706 263.013 239.731 263.501 238.926 264.208C238.833 264.254 238.756 264.325 238.704 264.413C238.651 264.501 238.626 264.603 238.63 264.706C239.084 264.902 239.521 265.137 239.936 265.406L241.647 264.799C241.88 265.297 241.025 265.592 241.383 266.012Z" fill="#FFDE82"/>
<path d="M262.437 259.792L260.727 259.186C259.478 259.483 258.33 260.105 257.399 260.989C257.284 261.087 257.209 261.223 257.188 261.373C257.168 261.522 257.205 261.674 257.29 261.798C257.695 261.907 258.099 261.907 258.41 262C259.806 261.594 261.107 260.912 262.235 259.994C262.287 259.988 262.334 259.964 262.371 259.928C262.407 259.891 262.431 259.843 262.437 259.792Z" fill="#FFDE82"/>
<path d="M259.016 258.548C258.612 258.439 258.301 258.237 257.897 258.144C256.464 258.376 255.154 259.089 254.18 260.165C253.978 260.352 253.869 260.554 253.978 260.756C254.382 260.865 254.678 261.067 255.082 261.16C256.53 260.717 257.844 259.921 258.908 258.844C258.901 258.789 258.907 258.734 258.926 258.683C258.945 258.631 258.976 258.585 259.016 258.548Z" fill="#FFDE82"/>
<path d="M236.655 262.669C236.355 262.87 236.083 263.111 235.847 263.384C236.31 263.561 236.749 263.796 237.153 264.084C238.257 263.477 239.268 262.871 240.263 262.28C239.675 262.047 239.04 261.96 238.411 262.028C237.782 262.095 237.18 262.316 236.655 262.669Z" fill="#FFDE82"/>
<path d="M251.552 259.45C251.638 259.578 251.768 259.669 251.918 259.707C252.067 259.744 252.225 259.724 252.361 259.652C253.372 259.155 254.382 258.641 255.378 258.097C255.598 257.943 255.775 257.734 255.891 257.491C255.486 257.382 255.175 257.18 254.787 257.086C253.677 257.443 252.628 257.967 251.677 258.641C251.609 258.681 251.552 258.735 251.508 258.8C251.464 258.865 251.435 258.939 251.423 259.016C251.411 259.094 251.417 259.173 251.439 259.248C251.461 259.323 251.5 259.392 251.552 259.45Z" fill="#FFDE82"/>
<path d="M250.044 258.641C251.152 258.212 252.198 257.637 253.154 256.931C253.215 256.883 253.265 256.821 253.3 256.751C253.335 256.682 253.354 256.605 253.356 256.527L252.641 256.231C251.542 256.544 250.516 257.073 249.624 257.786C249.329 258.377 249.329 258.641 250.044 258.641Z" fill="#FFDE82"/>
<path d="M96.0524 95.8813C99.52 113.017 99.7844 116.625 104.185 121.368C104.805 122.034 105.557 122.564 106.393 122.923C107.593 123.213 108.844 123.223 110.049 122.954C111.254 122.684 112.382 122.141 113.344 121.368C114.036 120.8 114.879 120.448 115.77 120.357C116.174 120.046 116.672 119.751 117.076 119.44C115.635 118.416 114.374 117.16 113.344 115.723C112.704 116.585 112.132 117.494 111.633 118.444C111.431 118.849 111.338 119.44 110.825 119.253C110.688 119.205 110.563 119.13 110.457 119.031C110.351 118.932 110.266 118.812 110.209 118.679C110.152 118.546 110.124 118.402 110.125 118.258C110.127 118.113 110.158 117.97 110.218 117.838C110.457 116.824 111 115.907 111.773 115.21C111.911 115.14 112.03 115.038 112.119 114.911C112.209 114.785 112.266 114.639 112.286 114.486C112.306 114.333 112.288 114.177 112.234 114.032C112.18 113.887 112.091 113.758 111.976 113.655C111.276 112.753 110.561 111.742 109.954 110.84C109.565 110.343 109.161 109.627 109.861 109.13C111.058 108.275 111.618 110.125 113.484 112.24L116.205 115.863C116.651 116.451 117.212 116.941 117.853 117.305C118.495 117.668 119.204 117.897 119.937 117.978C123.566 118.583 127.283 118.376 130.822 117.371C131.839 117.046 132.937 117.079 133.932 117.465C134.725 117.799 135.586 117.938 136.444 117.87C137.302 117.802 138.131 117.53 138.862 117.076C139.153 116.871 139.392 116.598 139.556 116.282C139.721 115.965 139.807 115.613 139.807 115.257C139.807 114.9 139.721 114.548 139.556 114.231C139.392 113.915 139.153 113.642 138.862 113.437C135.036 111.727 133.932 108.306 133.015 104.683C132.921 104.169 132.921 103.672 133.419 103.47C133.917 103.268 134.228 103.983 134.321 104.372C135.487 107.653 137.618 111.369 140.774 112.94C141.436 113.128 142.142 113.091 142.781 112.835C143.419 112.578 143.955 112.118 144.304 111.525C145.113 110.421 145.704 109.41 144.397 108.212C144.145 107.935 144.002 107.576 143.993 107.202C143.495 104.962 141.427 106.953 138.955 103.672C138.873 103.593 138.808 103.499 138.763 103.395C138.719 103.291 138.696 103.179 138.696 103.065C138.696 102.952 138.719 102.84 138.763 102.736C138.808 102.631 138.873 102.537 138.955 102.459C139.359 101.961 139.763 102.257 140.168 102.568C141.058 103.312 142.132 103.801 143.278 103.983C143.854 103.968 144.417 104.164 144.86 104.533C145.303 104.902 145.598 105.419 145.688 105.989C145.876 106.662 146.235 107.276 146.729 107.77C147.224 108.265 147.837 108.624 148.51 108.813C149.183 109.002 149.894 109.015 150.574 108.85C151.253 108.685 151.879 108.347 152.39 107.87C154.598 105.958 155.811 101.215 154.303 98.6958C152.592 95.8035 154.038 94.3263 155.858 91.9471C159.863 87.0893 162.847 81.4722 164.628 75.433C165.934 70.768 167.131 66.103 166.183 61.3292C164.628 52.7767 160.445 47.9406 151.488 46.4323C133.279 42.9957 114.852 50.211 105.46 69.1819C103.036 74.0239 101.658 79.3223 101.417 84.7319C101.495 85.3041 101.455 85.886 101.3 86.4421C101.144 86.9982 100.878 87.5169 100.515 87.9663C98.5093 89.879 97.4985 92.3981 95.9902 94.715C95.9105 94.9012 95.8747 95.1032 95.8855 95.3054C95.8962 95.5076 95.9533 95.7047 96.0524 95.8813ZM136.731 89.0237C137.296 89.0356 137.853 89.1605 138.369 89.3911C138.885 89.6217 139.349 89.9534 139.735 90.3665C140.12 90.7796 140.419 91.2658 140.614 91.7963C140.808 92.3269 140.895 92.8911 140.867 93.4555C140.867 98.5714 132.704 99.0846 132.704 93.5643C132.671 92.4372 133.07 91.34 133.818 90.4964C134.566 89.6528 135.608 89.1262 136.731 89.0237Z" fill="#FFB473"/>
<path d="M176.415 187.238C176.259 187.331 156.837 199.553 156.682 199.678C155.967 199.989 155.671 200.191 155.578 200.797C153.307 208.697 152.592 210.127 152.048 213.984C152.122 214.37 152.273 214.739 152.491 215.066C152.71 215.393 152.993 215.674 153.322 215.89C153.651 216.106 154.021 216.254 154.408 216.324C154.796 216.395 155.193 216.387 155.578 216.301C170.537 211.216 173.849 215.881 176.415 211.169C176.514 210.925 176.666 210.706 176.86 210.528C177.054 210.35 177.285 210.217 177.537 210.14C177.788 210.063 178.054 210.042 178.314 210.08C178.575 210.118 178.824 210.214 179.043 210.36C179.47 210.609 179.956 210.74 180.45 210.74C180.944 210.74 181.43 210.609 181.857 210.36C186.693 207.67 187.222 208.805 185.994 205.618C184.765 202.43 183.366 199.071 182.168 195.759C181.966 195.246 181.453 194.437 182.168 193.94C182.884 193.442 183.474 193.94 183.972 194.235C185.683 195.246 187.393 196.257 189.01 197.267C190.223 197.967 191.218 197.967 192.027 196.552C193.178 194.562 194.966 193.94 193.349 193.535C188.575 192.103 183.951 190.213 179.54 187.891C178.732 187.238 177.643 186.445 176.415 187.238Z" fill="#FFB473"/>
<path d="M255.782 225.708C250.153 225.506 244.508 225.708 238.864 225.304C238.221 225.23 237.574 225.409 237.06 225.802C232.286 229.969 231.104 230.016 231.104 231.742C231.104 240.139 229.736 239.734 233.623 240.714C239.283 242.269 245.97 244.508 249.033 243.731C253.296 242.803 257.502 241.63 261.629 240.216C264.956 239.097 264.956 239.097 265.159 235.676C265.167 235.033 265.235 234.393 265.361 233.763C266.465 229.938 265.159 227.419 261.333 226.206C260.739 225.942 260.163 225.641 259.607 225.304C259.405 225.195 259.11 224.806 258.814 225.195C258.006 226.206 256.793 225.802 255.782 225.708Z" fill="#FFB473"/>
<path d="M159.294 167.598C161.642 169.573 163.835 171.719 166.152 173.818C166.286 174.003 166.469 174.147 166.68 174.235C166.892 174.323 167.123 174.351 167.349 174.316C170.584 173.507 174.004 173.211 177.021 171.796C179.354 170.63 184.314 171.796 188.31 171.905C189.306 171.905 190.425 171.796 191.42 171.703C192.975 171.501 192.431 170.148 192.633 169.386C192.836 168.624 192.136 168.173 191.218 168.064L183.443 167.474C179.805 167.131 178.483 164.503 176.088 164.643C175.591 164.643 175.093 164.55 175.093 164.037C175.093 163.524 175.591 163.337 176.088 163.135C176.817 163.009 177.566 163.062 178.271 163.29C178.975 163.517 179.613 163.913 180.131 164.441C181.279 165.412 182.75 165.917 184.252 165.856C186.92 165.888 189.581 166.122 192.214 166.556C192.913 166.665 193.769 166.867 193.924 167.676C194.08 168.484 194.624 168.578 195.339 168.469C196.054 168.36 196.894 168.375 197.547 168.173C198.651 167.878 199.864 167.474 199.973 166.058C200.082 164.643 197.563 163.633 197.143 163.633C190.145 162.451 183.319 156.962 178.016 154.676C177.52 154.387 176.939 154.279 176.373 154.37C175.806 154.461 175.288 154.744 174.906 155.173C170.488 159.269 165.547 162.762 160.212 165.561C159.807 165.747 159.496 166.261 159.092 166.556C158.688 166.852 158.703 167.085 159.294 167.598Z" fill="#FFB473"/>
<path d="M159.807 176.555C157.786 174.642 155.873 172.932 154.054 171.221C153.556 170.817 153.261 170.91 152.95 171.314C151.239 172.869 149.529 174.424 147.616 175.979C151.552 177.274 155.767 177.473 159.807 176.555Z" fill="#FFB473"/>
<path d="M222.956 162.047C221.152 159.092 221.183 158.937 218.82 155.407C218.617 155.096 218.415 154.598 217.809 154.8C217.653 154.8 217.964 154.8 202.103 160.445C200.999 160.849 201.497 161.347 201.901 161.844C206.426 167.769 206.053 167.396 206.566 167.598C207.079 167.8 223.003 163.43 223.282 163.166C223.275 162.771 223.162 162.384 222.956 162.047Z" fill="#FFB473"/>
<path d="M160.165 236.889C160.678 236.189 161.378 235.334 160.974 234.463C160.569 233.592 159.419 233.561 158.548 233.468C155.127 232.955 141.023 230.949 137.4 230.435C135.363 230.031 134.476 232.861 132.066 235.272C130.651 236.578 131.258 237.495 132.066 238.692C132.673 239.501 132.968 239.408 133.481 238.692C134.679 236.982 136 235.271 137.198 233.561C138.255 232.255 137.198 232.923 155.858 234.572C156.355 234.572 156.962 234.37 157.164 234.867C157.366 235.365 157.724 234.478 143.573 253.9C142.018 255.922 142.158 255.922 143.573 257.928C143.977 258.534 144.273 258.534 144.677 257.928C146.683 255.02 151.69 248.613 160.165 236.889Z" fill="#FFB473"/>
<path d="M180.753 100.515C181.142 102.226 181.655 102.63 183.272 102.521C184.485 102.428 185.185 101.526 185.278 99.9088C185.278 88.2929 185.434 95.6169 183.568 72.1054C183.288 69.0731 182.495 69.8973 175.793 70.908C174.891 71.0013 174.393 71.4056 174.689 72.463C176.617 81.8863 178.654 91.1696 180.753 100.515ZM180.955 72.2142C181.966 72.0121 181.904 72.7118 181.966 73.4116C182.417 79.2895 182.946 97.0942 183.226 98.2915C183.226 98.9602 181.36 100.982 181.36 98.6336C180.24 92.8957 177.13 76.2728 176.524 73.7537C175.715 71.53 178.498 72.8829 180.955 72.2142Z" fill="#FFB473"/>
<path d="M183.163 238.692C183.208 238.428 183.163 238.156 183.036 237.92C182.91 237.684 182.708 237.496 182.464 237.386C180.909 236.624 179.913 238.008 178.327 239.812C152.608 265.905 152.67 265.905 153.556 267.102C154.878 268.424 155.609 266.978 182.464 240.512C182.712 240.282 182.904 239.999 183.025 239.684C183.147 239.368 183.194 239.029 183.163 238.692Z" fill="#FFB473"/>
<path d="M190.223 239.812C189.415 239.703 188.901 240.31 188.404 240.807C162.249 267.336 161.969 267.071 163.322 268.315C164.037 268.906 164.737 268.409 165.436 267.911C169.371 264.583 172.792 260.758 176.524 257.337C181.189 252.905 185.854 248.162 190.425 243.529C190.896 243.153 191.274 242.674 191.529 242.129C192.136 240.807 191.529 239.812 190.223 239.812Z" fill="#FFB473"/>
<path d="M240.574 115.521C240.406 111.428 239.938 107.354 239.175 103.33C238.972 102.63 238.661 102.117 237.962 102.428C237.262 102.739 235.94 102.117 236.049 103.734C236.453 107.357 236.547 111.089 237.153 114.712C237.916 119.044 238.435 123.415 238.708 127.805C238.817 129.36 239.517 129.36 240.621 129.36C242.362 129.485 241.243 128.63 240.807 121.585C240.621 119.502 240.527 117.247 240.574 115.521Z" fill="#FFB473"/>
<path d="M171.19 238.49C171.732 238.032 172.086 237.39 172.185 236.687C171.936 234.961 170.397 234.245 168.966 235.676C145.812 259.934 145.875 260.027 146.916 261.053C148.363 262.515 149.886 260.105 171.19 238.49Z" fill="#FFB473"/>
<path d="M190.114 104.838C190.114 107.559 190.923 108.275 193.535 108.072C194.251 108.072 194.453 107.761 194.655 107.062C196.21 100.702 196.661 100.966 197.672 90.3455C197.765 89.5369 197.469 89.1326 196.661 89.0237C192.198 88.7438 189.928 87.3754 190.114 89.9412C190.13 90.0967 190.114 104.994 190.114 104.838ZM191.669 102.428C192.758 93.2067 190.534 90.9053 193.489 91.1385C195.806 91.2474 195.806 91.2474 195.199 93.4555C194.297 96.9853 193.986 100.748 192.975 104.34C192.82 104.465 191.125 106.735 191.623 102.428H191.669Z" fill="#FFB473"/>
<path d="M228.087 260.649L229.394 260.96C230.635 260.844 231.838 260.468 232.923 259.856C233.219 259.545 233.623 259.343 233.53 258.845C233.437 258.348 232.923 258.534 232.628 258.534C230.809 258.037 229.394 259.047 227.963 259.949C227.59 260.151 227.59 260.54 228.087 260.649Z" fill="#FFB473"/>
<path d="M220.639 262.671C220.551 262.545 220.421 262.456 220.272 262.419C220.124 262.382 219.967 262.399 219.83 262.468C218.496 262.706 217.206 263.146 216.005 263.775C215.601 263.977 214.994 264.179 215.103 264.677C215.212 265.174 215.896 265.081 216.503 265.19C217.924 265.029 219.26 264.431 220.328 263.479C220.67 263.137 220.639 263.355 220.639 262.671Z" fill="#FFB473"/>
<path d="M245.006 255.113V255.02C244.913 254.507 244.399 254.507 244.104 254.414C243.595 254.274 243.062 254.246 242.541 254.332C242.02 254.418 241.524 254.615 241.087 254.911C240.574 255.222 239.765 255.315 239.968 256.124C240.17 256.933 240.885 256.824 241.523 256.933C242.675 256.848 243.785 256.462 244.741 255.813C244.857 255.591 244.945 255.356 245.006 255.113Z" fill="#FFB473"/>
<path d="M279.045 200.595C276.557 199.646 274.815 201.497 275.017 204.218C276.184 217.451 275.453 220.204 276.23 226.781C276.743 230.404 278.656 232.628 281.673 233.126C283.215 233.375 284.776 233.48 286.338 233.437C288.157 233.48 289.977 233.376 291.78 233.126C294.999 232.83 296.321 231.571 297.021 228.461C298.42 221.883 296.663 212.491 297.518 204.591C297.622 203.317 297.414 202.036 296.912 200.859C296.758 200.341 296.46 199.877 296.053 199.522C295.645 199.166 295.145 198.935 294.61 198.853C293.055 198.651 287.613 200.782 285.98 201.077C283.669 201.579 281.264 201.412 279.045 200.595Z" fill="#FFDE82"/>
<path d="M253.17 160.942C251.754 160.942 251.615 161.44 251.754 162.653C252.065 164.768 251.957 164.768 254.18 164.768C268.875 164.472 283.585 164.27 298.296 163.959C298.823 163.897 299.357 163.967 299.851 164.161C301.25 163.959 301.25 163.057 301.406 160.243C301.406 159.061 301.235 159.527 300.908 159.527C291.765 159.527 262.266 160.694 253.17 160.942Z" fill="#FFDE82"/>
<path d="M114.37 269.015C113.468 268.113 112.971 268.315 112.255 269.217C109.752 272.327 107.124 275.437 104.48 278.283C103.983 278.734 103.604 279.3 103.376 279.932C103.148 280.563 103.079 281.241 103.174 281.906C103.672 285.094 102.91 288.639 105.398 287.753C107.404 287.644 109.223 287.551 111.027 287.348C111.836 287.24 112.582 287.348 113.251 286.54C115.863 283.119 118.584 279.791 121.306 276.463C122.503 275.235 121.399 275.391 114.37 269.015Z" fill="#FFDE82"/>
<path d="M133.621 281.611C133.683 281.7 133.765 281.774 133.861 281.825C133.957 281.875 134.064 281.902 134.173 281.902C134.282 281.902 134.389 281.875 134.485 281.825C134.581 281.774 134.664 281.7 134.725 281.611C137.649 277.972 140.463 274.255 143.387 270.632C143.791 270.119 143.682 269.917 143.278 269.513C134.865 263.044 134.896 262.515 134.321 263.681L126.157 274.255C125.317 275.422 126.079 275.048 133.621 281.611Z" fill="#FFDE82"/>
<path d="M122.534 272.436C123.545 273.338 124.089 273.245 124.758 272.234L132.299 262.904C132.61 262.593 132.704 262.204 132.906 262.002C132.906 261.147 132.035 261.053 124.649 255.455C124.541 255.349 124.411 255.269 124.267 255.221C124.124 255.173 123.972 255.158 123.822 255.177C123.672 255.197 123.529 255.25 123.402 255.333C123.276 255.417 123.171 255.527 123.094 255.658C120.684 258.768 118.273 261.878 115.754 264.988C114.355 266.76 116.625 266.869 122.534 272.436Z" fill="#FFDE82"/>
<path d="M112.053 263.479C112.769 264.07 113.173 264.086 113.779 263.277C113.904 263.122 121.554 253.667 121.725 253.512C121.725 252.905 121.819 253.278 112.862 246.654C112.364 246.25 111.96 246.048 111.307 246.747C108.897 249.78 106.471 252.703 104.061 255.626C103.656 256.124 103.656 256.42 104.154 256.824C106.829 259.047 109.456 261.24 112.053 263.479Z" fill="#FFDE82"/>
<path d="M144.615 271.83L136.451 282.715C136.249 283.01 135.845 283.212 136.156 283.616L137.058 284.518C142.702 283.725 148.238 282.963 153.867 282.108C153.774 281.813 153.774 281.611 153.681 281.502C148.814 273.276 151.177 275.857 145.812 271.736C145.299 271.13 144.988 271.223 144.615 271.83Z" fill="#FFDE82"/>
<path d="M114.479 244.944C117.2 246.856 119.922 248.676 122.534 250.682C123.343 251.288 123.747 251.086 124.245 250.479C125.66 248.676 127.168 247.058 128.474 245.239C129.283 244.135 130.698 243.124 131.102 241.818C129.376 239.237 131.506 240.17 116.19 240.916C115.49 241.725 114.883 242.471 114.184 243.326C113.484 244.182 113.671 244.446 114.479 244.944Z" fill="#FFDE82"/>
<path d="M126.157 251.692C125.66 252.392 125.551 252.796 126.468 253.403C128.987 255.222 131.506 257.026 134.025 258.939C134.725 259.452 135.223 259.452 135.736 258.736C136.638 257.43 137.649 256.217 138.644 255.02C136.529 251.288 134.414 247.665 132.299 243.933C132.299 244.042 132.206 244.042 132.206 244.135C130.185 246.561 128.179 249.173 126.157 251.692Z" fill="#FFDE82"/>
<path d="M100.08 253.107C100.453 254.662 101.635 254.818 102.599 253.605C104.807 251.086 106.922 248.473 109.145 245.954C109.845 245.146 109.938 244.399 108.943 243.731C107.948 243.062 106.922 242.176 106.02 241.523C103.594 241.616 101.184 241.818 98.6647 241.927C99.52 245.457 99.52 250.557 100.08 253.107Z" fill="#FFDE82"/>
<path d="M242.798 97.2963C242.689 96.6899 242.689 96.0834 241.787 96.2856C240.885 96.4877 239.377 95.6791 239.268 97.0942C239.159 98.5092 238.257 100.111 240.17 101.122C240.372 101.215 240.574 101.728 240.683 102.024C240.978 103.734 241.383 105.351 241.585 107.062C242.285 112.193 242.393 117.325 243.14 122.612C243.14 110.172 242.891 107.808 243.14 102.77C243.176 100.939 243.061 99.1084 242.798 97.2963Z" fill="#FFDE82"/>
<path d="M84.3587 195.184C84.1814 194.823 83.8841 194.536 83.518 194.372C83.1519 194.207 82.7399 194.175 82.3528 194.282C81.9632 194.384 81.6247 194.626 81.4012 194.961C81.1778 195.296 81.0848 195.702 81.1399 196.101V196.894C82.4461 196.692 83.659 196.49 84.9652 196.396C84.8079 195.971 84.6045 195.565 84.3587 195.184Z" fill="#FFDE82"/>
<path d="M82.6482 206.815C83.2702 209.21 87.08 209.132 87.08 205.493C85.1207 196.443 85.2762 197.532 85.2762 197.438C83.8611 197.641 82.4461 197.843 81.1399 198.154C81.3255 201.087 81.8313 203.991 82.6482 206.815Z" fill="#FFDE82"/>
<path d="M72.9761 119.253C73.1674 117.581 73.2349 115.897 73.1783 114.215C73.0072 113.002 73.8003 108.866 71.3745 108.663C70.0683 108.57 69.5551 109.472 69.2597 110.592C68.7124 113.476 68.5762 116.424 68.8554 119.346C68.844 119.631 68.8949 119.915 69.0045 120.178C69.1142 120.441 69.2799 120.677 69.4901 120.87C69.7004 121.062 69.9501 121.206 70.2218 121.292C70.4936 121.378 70.7808 121.404 71.0635 121.368C71.5847 121.307 72.0661 121.06 72.418 120.67C72.7699 120.281 72.9683 119.778 72.9761 119.253Z" fill="#FFDE82"/>
<path d="M116.998 173.336C117.341 173.344 117.68 173.275 117.993 173.136C118.305 172.996 118.583 172.788 118.805 172.527C119.027 172.266 119.188 171.959 119.276 171.628C119.364 171.298 119.378 170.951 119.315 170.615C119.236 167.619 118.856 164.639 118.18 161.72C117.978 160.927 117.574 160.009 116.47 160.165C114.293 160.352 114.915 172.154 114.915 170.63C114.883 172.418 115.583 173.336 116.998 173.336Z" fill="#FFDE82"/>
<path d="M123.436 140.494C123.422 141.066 123.629 141.622 124.014 142.045C124.399 142.468 124.932 142.726 125.503 142.767C126.074 142.807 126.638 142.625 127.079 142.26C127.519 141.895 127.802 141.374 127.868 140.805C128.095 137.863 127.859 134.904 127.168 132.035C127.093 131.588 126.857 131.183 126.505 130.897C126.153 130.611 125.709 130.462 125.255 130.48C124.353 130.48 123.949 131.289 123.7 132.035C123.347 134.84 123.259 137.672 123.436 140.494Z" fill="#FFDE82"/>
<path d="M96.1456 154.598C96.1456 156.153 96.8454 156.915 98.0583 157.008C98.3628 157.031 98.6684 156.986 98.9536 156.877C99.2388 156.768 99.4966 156.598 99.7087 156.378C99.9209 156.159 100.082 155.895 100.181 155.606C100.28 155.317 100.315 155.01 100.282 154.707C100.375 152.483 100.375 150.166 100.282 147.943C100.318 147.65 100.291 147.353 100.204 147.071C100.116 146.789 99.97 146.529 99.7744 146.308C99.5789 146.087 99.3387 145.91 99.0696 145.789C98.8006 145.668 98.5089 145.605 98.2138 145.605C97.9187 145.605 97.627 145.668 97.3579 145.789C97.0889 145.91 96.8487 146.087 96.6531 146.308C96.4576 146.529 96.3113 146.789 96.2238 147.071C96.1363 147.353 96.1097 147.65 96.1456 147.943C96.1301 148.176 96.1456 154.551 96.1456 154.598Z" fill="#FFDE82"/>
<path d="M95.8502 177.659C95.8066 178.271 96.0029 178.876 96.3976 179.346C96.7922 179.817 97.3544 180.115 97.965 180.178C98.6262 180.107 99.235 179.785 99.6661 179.279C100.097 178.773 100.318 178.121 100.282 177.457C100.069 174.952 99.6952 172.464 99.1623 170.008C99.1411 169.78 99.0744 169.558 98.9663 169.355C98.8581 169.153 98.7107 168.974 98.5326 168.829C98.3545 168.684 98.1493 168.576 97.929 168.512C97.7087 168.447 97.4778 168.427 97.2497 168.453C96.0523 168.562 95.9435 169.464 95.8502 170.475V177.659Z" fill="#FFDE82"/>
<path d="M110.545 267.102C111.26 266.403 110.747 265.998 110.249 265.547L103.003 259.203C102.599 258.908 102.288 258.192 101.588 258.705C101.313 258.853 101.088 259.081 100.944 259.358C100.8 259.636 100.742 259.95 100.78 260.26C101.106 261.598 101.635 268.035 102.599 276.075C103.687 275.235 102.055 277.008 110.545 267.102Z" fill="#FFDE82"/>
<path d="M131.195 283.414C129.485 281.859 127.665 280.398 125.955 278.889C123.84 277.179 123.84 277.179 122.13 279.294C120.124 281.704 118.211 284.13 116.19 286.633C116.19 286.742 116.298 286.835 116.392 287.037C118.802 286.835 121.228 286.633 123.545 286.54C124.431 286.431 131.631 285.405 131.895 285.327C132.159 285.249 132.097 285.031 132.206 284.829C132.502 283.927 131.6 283.819 131.195 283.414Z" fill="#FFDE82"/>
<path d="M59.883 162.155V161.72C59.5876 159.714 59.4787 157.693 59.2921 155.78C59.2723 154.089 59.1006 152.402 58.779 150.742C58.4835 149.746 57.9704 149.031 56.8663 149.031C54.3783 149.031 54.9692 153.214 54.8604 154.785C54.8525 157.445 55.0501 160.101 55.4513 162.731C55.8867 165.825 59.883 165.545 59.883 162.155Z" fill="#FFDE82"/>
<path d="M88.635 132.175C89.0393 133.73 89.9567 134.492 91.2629 134.29C91.6524 134.239 92.0197 134.079 92.3223 133.829C92.625 133.579 92.8507 133.248 92.9735 132.875C91.1541 130.154 89.8634 127.23 88.3084 124.416C88.2929 129.376 88.1996 130.62 88.635 132.175Z" fill="#FFDE82"/>
<path d="M90.6099 119.642C88.635 119.642 88.635 122.316 88.635 122.161C88.8216 122.441 90.9675 126.142 92.9579 129.22C92.7868 126.561 92.7713 123.731 92.6003 122.27C92.4292 120.808 92.1493 119.642 90.6099 119.642Z" fill="#FFDE82"/>
<path d="M234.432 155.205C238.948 156.616 243.778 156.686 248.333 155.407C249.749 155.096 250.153 154.505 249.749 152.779C249.438 151.379 248.333 152.079 247.634 152.188C242.969 152.779 238.459 153.385 233.934 152.188H233.825C233.947 153.208 234.15 154.217 234.432 155.205Z" fill="#FFDE82"/>
<path d="M242.082 150.073C244.169 150.151 246.257 149.979 248.302 149.56C249.717 149.264 250.013 148.751 249.717 146.947C249.515 145.641 248.411 146.232 247.805 146.341C243.14 146.745 238.63 147.445 233.996 146.139C233.903 146.139 233.794 146.03 233.701 146.03V148.86C236.399 149.766 239.238 150.177 242.082 150.073Z" fill="#FFDE82"/>
<path d="M247.727 141.598C249.282 141.412 250.246 141.101 250.246 139.188C250.246 138.084 250.153 137.975 249.142 138.084C244.163 138.703 239.13 138.771 234.136 138.286H233.732C233.718 139.127 233.75 139.968 233.825 140.805C238.358 142.004 243.087 142.274 247.727 141.598Z" fill="#FFDE82"/>
<path d="M59.883 186.927C58.779 187.238 58.6857 188.233 58.779 189.15C58.9973 192.448 59.6777 195.698 60.8005 198.807C60.8832 199.066 61.0168 199.307 61.1935 199.515C61.3702 199.722 61.5864 199.892 61.8296 200.015C62.0728 200.138 62.338 200.212 62.6099 200.231C62.8817 200.251 63.1547 200.216 63.4129 200.128C64.5169 199.926 64.9679 199.118 64.9679 198.014C64.3237 194.982 63.5192 191.987 62.5576 189.041C61.7179 187.86 61.2514 186.6 59.883 186.927Z" fill="#FFDE82"/>
<path d="M61.2048 212.911C61.11 212.498 60.8551 212.14 60.4965 211.916C60.1378 211.691 59.7046 211.618 59.2922 211.713C58.8797 211.808 58.5219 212.063 58.2974 212.422C58.0728 212.78 58 213.213 58.0948 213.626C58.608 217.047 59.2144 220.561 59.9142 223.998C59.989 224.484 60.2296 224.929 60.5952 225.258C60.9609 225.586 61.4289 225.779 61.9201 225.802C62.2472 225.821 62.5745 225.768 62.8784 225.645C63.1822 225.522 63.4549 225.333 63.6767 225.092C63.8986 224.851 64.0639 224.563 64.1608 224.25C64.2578 223.937 64.2838 223.607 64.2371 223.282C63.4028 219.776 62.3908 216.314 61.2048 212.911Z" fill="#FFDE82"/>
<path d="M73.085 166.68C72.7398 166.684 72.4099 166.823 72.1658 167.067C71.9218 167.312 71.7828 167.641 71.7788 167.987C71.2033 171.527 71.2349 175.14 71.8721 178.669C71.9411 179.207 72.2065 179.699 72.617 180.052C73.0276 180.406 73.5543 180.594 74.0958 180.582C74.642 180.478 75.137 180.192 75.501 179.772C75.865 179.352 76.0766 178.821 76.1017 178.265C76.1017 177.472 75.2309 169.635 74.6867 167.893C74.6681 167.706 74.611 167.524 74.5188 167.359C74.4266 167.194 74.3014 167.051 74.151 166.937C74.0006 166.823 73.8282 166.741 73.6448 166.697C73.4613 166.653 73.2708 166.647 73.085 166.68Z" fill="#FFDE82"/>
<path d="M123.032 216.145C122.441 213.921 121.928 211.713 121.321 209.396C121.026 208.479 120.419 207.67 119.408 207.841C117.356 208.043 118.227 212.133 118.507 214.279C118.786 216.425 119.004 219.815 120.419 221.23C121.43 221.028 122.441 220.826 123.436 220.53C123.646 220.201 123.754 219.817 123.747 219.426C123.588 218.316 123.349 217.22 123.032 216.145Z" fill="#FFDE82"/>
<path d="M72.5719 145.237C72.774 146.636 73.4893 147.445 74.7955 147.352C76.1017 147.258 76.7082 146.543 76.817 145.035C76.817 142.749 76.9103 145.408 76.2106 136.171C76.2224 135.656 76.043 135.155 75.707 134.765C75.371 134.374 74.9022 134.122 74.3912 134.057C73.085 133.948 72.6807 134.958 72.4786 135.969C72.1075 139.049 72.1389 142.165 72.5719 145.237Z" fill="#FFDE82"/>
<path d="M59.4787 132.175C60.5361 134.196 63.5217 133.73 63.5217 130.464C62.8997 125.52 63.133 120.59 60.0852 121.134C58.5302 121.43 58.5302 122.689 58.5302 123.84C58.648 126.637 58.965 129.423 59.4787 132.175Z" fill="#FFDE82"/>
<path d="M48.7026 177.659C48.1117 174.813 47.894 170.055 45.2816 170.708C44.1775 170.91 43.8821 171.921 43.8821 172.932C43.9182 175.971 44.3256 178.994 45.095 181.935C45.2512 182.457 45.6015 182.899 46.0738 183.171C46.5461 183.443 47.1045 183.523 47.6343 183.396C48.164 183.268 48.6248 182.942 48.9218 182.486C49.2189 182.029 49.3296 181.476 49.2313 180.94C49.0136 179.68 48.9203 178.669 48.7026 177.659Z" fill="#FFDE82"/>
<path d="M108.337 139.39C108.92 139.289 109.452 138.998 109.852 138.562C110.251 138.126 110.495 137.569 110.545 136.98V136.265C109.297 137.085 107.942 137.729 106.518 138.177C106.713 138.501 106.977 138.778 107.292 138.987C107.606 139.197 107.963 139.335 108.337 139.39Z" fill="#FFDE82"/>
<path d="M108.43 126.997C107.326 126.997 106.875 127.805 106.626 128.816C106.301 131.15 106.129 133.504 106.113 135.86C107.639 135.385 109.121 134.781 110.545 134.057C110.545 130.62 110.887 127.199 108.43 126.997Z" fill="#FFDE82"/>
<path d="M128.878 180.085C128.883 181 128.987 181.913 129.189 182.806C129.277 183.304 129.558 183.748 129.972 184.04C130.386 184.331 130.899 184.447 131.397 184.361C131.664 184.355 131.927 184.295 132.17 184.184C132.413 184.074 132.631 183.914 132.81 183.716C132.989 183.518 133.126 183.286 133.212 183.033C133.298 182.78 133.331 182.512 133.31 182.246V181.235C133.247 178.482 132.721 175.759 131.755 173.18C131.652 172.811 131.423 172.49 131.108 172.271C130.793 172.053 130.411 171.951 130.029 171.983C127.837 172.294 128.878 177.27 128.878 180.085Z" fill="#FFDE82"/>
<path d="M44.1775 147.041C43.3378 136.591 43.7266 139.592 43.2756 137.711C42.8713 136.498 40.6477 136.436 40.6477 137.913C40.4455 139.826 39.5436 141.536 39.6369 143.558C39.7458 144.662 39.9479 145.875 40.0412 146.979V147.383C40.0701 147.683 40.1588 147.973 40.3019 148.238C40.4449 148.503 40.6396 148.737 40.8744 148.925C41.1092 149.113 41.3793 149.253 41.6689 149.335C41.9584 149.418 42.2616 149.441 42.5604 149.404C43.8821 149.28 44.2708 148.254 44.1775 147.041Z" fill="#FFDE82"/>
<path d="M137.446 261.567C145.392 267.382 145.221 267.787 145.797 267.507C143.682 263.884 141.676 260.245 139.577 256.528C138.768 257.632 138.022 258.736 137.151 259.747C136.28 260.758 136.747 261.053 137.446 261.567Z" fill="#FFDE82"/>
<path d="M139.452 204.156C140.665 204.047 141.474 203.036 141.474 201.233C141.474 199.429 140.836 195.013 139.919 194.08C138.848 194.4 137.944 195.125 137.4 196.101C137.089 196.692 136.685 197.205 136.389 197.812C136.449 199.263 136.615 200.708 136.887 202.134C136.917 202.438 137.009 202.732 137.155 202.999C137.302 203.266 137.501 203.501 137.74 203.69C137.98 203.878 138.255 204.017 138.549 204.097C138.843 204.177 139.15 204.197 139.452 204.156Z" fill="#FFDE82"/>
<path d="M111.867 192.664C111.758 191.669 111.665 190.659 111.462 189.648C111.308 188.048 110.931 186.478 110.343 184.983C110.18 184.577 109.877 184.243 109.489 184.04C109.102 183.838 108.654 183.78 108.228 183.879C107.326 183.972 107.031 184.578 106.922 185.434C106.845 188.098 107.017 190.763 107.435 193.395C107.555 193.999 107.872 194.546 108.337 194.95C109.348 194.655 110.343 194.453 111.447 194.157C111.634 193.962 111.77 193.724 111.843 193.463C111.916 193.203 111.925 192.929 111.867 192.664Z" fill="#FFDE82"/>
<path d="M233.623 132.439C233.53 132.439 233.53 132.439 233.421 132.346L233.732 134.461C236.673 135.127 239.674 135.497 242.689 135.565C245.362 135.709 248.036 135.296 250.542 134.352V132.641C244.788 132.641 242.953 134.103 233.623 132.439Z" fill="#FFDE82"/>
<path d="M89.7079 108.368C91.0141 108.368 91.9161 107.062 91.9161 105.149C91.9161 103.236 91.7139 101.215 91.5117 99.3023C91.5192 99.0676 91.4768 98.834 91.3875 98.6169C91.2982 98.3997 91.164 98.2039 90.9936 98.0423C90.8232 97.8808 90.6206 97.7571 90.399 97.6794C90.1774 97.6018 89.9419 97.5719 89.7079 97.5918C88.6972 97.5918 88.1529 98.2915 88.1529 99.3023C87.9508 101.215 87.7486 103.236 87.6553 104.543C87.391 107.155 88.184 108.368 89.7079 108.368Z" fill="#FFDE82"/>
<path d="M102.195 202.445C102.011 202.462 101.832 202.517 101.67 202.605C101.508 202.694 101.365 202.815 101.252 202.961C101.138 203.106 101.056 203.274 101.009 203.453C100.963 203.631 100.953 203.818 100.982 204C100.823 206.451 101.129 208.91 101.884 211.247C101.937 211.51 102.043 211.76 102.194 211.982C102.346 212.204 102.541 212.393 102.767 212.538C102.993 212.683 103.247 212.781 103.512 212.826C103.776 212.872 104.048 212.863 104.309 212.802C105.616 212.6 105.864 211.604 106.02 210.594C105.71 208.251 105.136 205.95 104.309 203.736C104.192 203.29 103.906 202.906 103.512 202.665C103.118 202.425 102.646 202.346 102.195 202.445Z" fill="#FFDE82"/>
<path d="M147.616 211.48C147.414 210.158 147.212 208.852 145.595 208.759C144.599 208.65 144.04 210.065 144.04 211.978C144.226 213.175 144.335 215.57 144.335 215.803C144.444 217.358 145.346 218.617 146.559 218.524C146.894 218.474 147.214 218.352 147.498 218.167C147.782 217.982 148.022 217.739 148.204 217.452C148.385 217.166 148.503 216.845 148.549 216.509C148.595 216.173 148.569 215.832 148.471 215.507C148.114 214.217 147.818 212.911 147.616 211.48Z" fill="#FFDE82"/>
<path d="M82.415 225.195C82.3217 223.765 81.2332 219.768 79.8026 219.768C77.9832 219.768 77.3768 220.67 77.4856 221.774C77.5942 223.276 77.8653 224.762 78.2942 226.206C78.4097 226.648 78.6163 227.061 78.9007 227.419C79.8959 227.419 80.9066 227.31 81.9174 227.31C82.1549 227.018 82.323 226.676 82.4092 226.31C82.4954 225.943 82.4974 225.562 82.415 225.195Z" fill="#FFDE82"/>
<path d="M69.7573 235.474C69.9335 235.966 70.2966 236.37 70.768 236.597C71.2395 236.824 71.7814 236.856 72.2764 236.687C73.2871 236.376 73.6914 235.676 73.8314 234.463C73.5703 233.117 73.1636 231.803 72.6185 230.544C71.4212 230.746 70.2082 230.84 69.1042 230.949C69.0241 232.485 69.246 234.022 69.7573 235.474Z" fill="#FFDE82"/>
<path d="M47.3031 123.374C47.5673 123.368 47.8275 123.309 48.0682 123.2C48.309 123.091 48.5252 122.934 48.7038 122.74C48.8825 122.545 49.02 122.316 49.1079 122.067C49.1959 121.818 49.2326 121.554 49.2157 121.29C49.1985 119.879 48.9245 118.482 48.4071 117.169C47.1464 117.924 45.9361 118.761 44.784 119.673C44.784 121.414 45.5615 123.7 47.3031 123.374Z" fill="#FFDE82"/>
<path d="M111.96 242.58C112.349 242.067 112.769 241.663 113.173 241.165L109.239 241.46C109.735 241.863 110.255 242.237 110.794 242.58C111.26 242.58 111.649 242.922 111.96 242.58Z" fill="#FFDE82"/>
<path d="M103.501 220.81C101.837 220.81 101.573 223.687 102.195 224.946C103.205 224.729 104.201 224.635 105.211 224.433C105.211 224.34 105.32 224.231 105.32 224.029C105.507 222.785 104.512 220.965 103.501 220.81Z" fill="#FFDE82"/>
<path d="M301.203 219.861C300.461 213.409 300.092 206.919 300.099 200.424C299.992 198.373 300.41 196.329 301.312 194.484C301.521 194.133 301.646 193.738 301.679 193.331C301.711 192.924 301.65 192.515 301.5 192.135C301.35 191.756 301.115 191.415 300.813 191.14C300.511 190.865 300.15 190.663 299.757 190.55C298.58 189.985 297.32 189.613 296.025 189.446C295.015 189.243 293.615 189.555 293.009 188.839C292.402 188.124 292.9 186.833 292.806 185.729C292.806 183.299 292.396 180.886 291.594 178.592C291.385 177.939 290.937 177.389 290.341 177.051C289.744 176.714 289.042 176.614 288.375 176.772C287.862 176.866 287.364 177.177 287.566 177.783C288.375 181.095 287.566 184.423 287.768 187.751C287.862 188.761 287.473 188.964 286.555 188.964C284.549 188.964 282.528 189.259 280.522 189.461C278.205 189.772 275.981 190.472 273.664 191.016C271.347 191.56 271.254 191.327 270.943 193.535C270.01 192.136 262.189 179.774 259.063 174.875C258.852 174.429 258.505 174.062 258.072 173.827C257.638 173.593 257.141 173.502 256.653 173.569L243.249 173.88C242.238 173.88 241.694 173.973 241.694 172.667C241.694 172.17 241.18 171.859 240.885 171.454C239.765 170.35 238.77 169.137 237.651 168.033C232.115 162.389 227.388 155.842 222.101 149.902C221.628 149.262 220.957 148.795 220.192 148.576C219.427 148.357 218.611 148.396 217.871 148.689C211.558 150.695 193.473 157.475 190.581 158.019C190.234 158.138 189.866 158.182 189.501 158.147C189.137 158.112 188.784 158 188.466 157.817C185.947 156.417 183.319 155.096 180.691 153.789C178.576 152.779 176.135 152.032 173.973 153.898C169.324 157.624 164.47 161.087 159.434 164.27C157.226 165.825 157.133 165.825 155.313 164.161C151.877 161.145 152.592 160.849 149.093 164.768C148.934 164.898 148.808 165.063 148.724 165.251C148.64 165.439 148.601 165.643 148.61 165.849C148.62 166.054 148.676 166.254 148.776 166.434C148.876 166.613 149.017 166.767 149.187 166.883C151.737 169.433 152.608 169.759 151.706 170.21C149.773 171.502 147.925 172.915 146.17 174.44C145.657 174.735 145.253 175.14 144.755 175.451C143.34 172.232 142.733 171.423 140.432 170.412C139.11 169.915 139.297 169.293 139.794 167.878C141.007 164.052 140.261 161.362 136.684 159.45C134.694 158.128 132.704 158.501 132.704 154.225C132.993 148.81 133.858 143.44 135.285 138.208C136.498 132.47 134.321 127.712 130.496 123.28C129.594 122.27 128.381 121.461 127.479 120.357C129.982 120.155 132.299 118.802 134.725 119.953C135.517 120.147 136.344 120.147 137.135 119.953C138.215 119.855 139.225 119.376 139.983 118.601C140.742 117.825 141.198 116.805 141.272 115.723C141.365 115.117 141.567 115.117 141.971 115.023C142.842 114.882 143.658 114.506 144.332 113.936C145.006 113.366 145.512 112.624 145.797 111.789C146.108 111.089 146.31 110.887 147.212 111.089C148.184 111.353 149.202 111.4 150.194 111.225C151.186 111.05 152.127 110.659 152.95 110.078C154.732 108.604 155.939 106.552 156.363 104.278C156.786 102.005 156.398 99.6551 155.267 97.6385C154.66 96.6432 154.862 96.0834 155.578 95.3215C159.88 90.7792 163.204 85.4019 165.343 79.5227C167.349 73.8781 169.168 68.1401 168.267 61.9979C167.256 55.3425 164.643 50.3043 159.201 47.2876C154.365 44.3953 146.761 43.6644 141.07 44.0687C135.638 44.2217 130.28 45.3598 125.255 47.4275C119.296 50.3496 114.003 54.4678 109.705 59.5254C104.599 65.3954 101.247 72.5839 100.033 80.2691C99.52 82.415 99.6755 84.7942 99.069 87.08C98.8669 87.6865 98.7736 88.0908 98.3693 87.9819C97.6384 87.9819 96.6121 85.1052 93.8287 87.2822C92.4808 88.3103 91.2915 89.5311 90.2988 90.9053C88.495 93.3156 86.4735 95.2437 83.1614 95.2437C82.5052 95.2446 81.8631 95.4342 81.3117 95.7899C80.7603 96.1455 80.3228 96.6523 80.0514 97.2497C79.8492 97.654 79.6471 98.1516 79.0406 98.1516C77.5372 98.4218 76.1195 99.0454 74.9043 99.971C70.2393 102.785 65.6521 105.911 60.816 108.337C56.2832 110.612 51.8762 113.13 47.6141 115.879C44.2553 118.133 40.5544 120.435 38.1441 124.944C37.9822 125.233 37.7592 125.483 37.4906 125.676C37.2219 125.87 36.9143 126.002 36.5891 126.064C32.9438 126.835 29.3968 128.014 26.0151 129.578C19.7609 132.877 14.3579 137.582 10.2319 143.324C7.51065 147.243 6.9042 150.835 9.12785 154.894C10.9472 158.423 12.6577 162.047 14.7725 165.374C20.5882 174.331 22.1121 191.001 22.5475 201.637C22.5107 204.554 23.3448 207.415 24.9431 209.856C26.5414 212.296 28.8312 214.204 31.5198 215.336C32.1044 215.568 32.6169 215.95 33.0049 216.445C33.3929 216.939 33.6425 217.528 33.7279 218.151C36.0449 229.829 39.4814 241.212 42.3893 252.796C42.5356 253.241 42.707 253.677 42.9024 254.103C42.9774 254.323 43.1323 254.508 43.3367 254.62C43.541 254.732 43.78 254.764 44.0065 254.709C44.5041 254.616 44.5041 254.211 44.5041 253.698C44.4444 252.545 44.2779 251.4 44.0065 250.277C41.1919 239.905 38.4707 229.425 35.6406 218.96C35.5473 218.446 35.2363 218.058 35.5473 217.544C36.7137 217.855 37.8527 218.261 38.9527 218.757C42.918 231.866 48.1739 249.002 49.5578 254.942C49.6978 255.751 51.5482 256.793 50.8485 254.165C47.6141 241.849 42.4826 224.931 40.4767 218.649C42.4981 218.353 43.8043 216.938 45.3127 215.632C49.2002 227.294 53.2432 246.732 55.4824 252.501C55.5078 252.608 55.5543 252.708 55.6192 252.797C55.6841 252.886 55.766 252.96 55.8601 253.017C55.9543 253.073 56.0588 253.11 56.1675 253.126C56.2762 253.142 56.3869 253.135 56.4931 253.107C57.0063 252.999 57.0063 252.501 57.0063 252.097C57.0015 251.477 56.8965 250.863 56.6953 250.277C53.6786 239.097 51.2528 227.823 47.2253 217.047C46.5256 215.134 46.6189 213.828 48.3449 212.615C48.9358 212.211 49.138 211.9 49.6511 212.708C50.1915 213.618 50.8331 214.463 51.5638 215.228C55.4513 219.115 53.663 223.422 55.2802 225.04C56.9449 226.641 58.3415 228.5 59.4165 230.544C61.9459 235.399 65.0074 239.957 68.5444 244.135C69.4618 245.146 69.353 245.441 68.4511 246.25C54.5494 258.939 40.5544 271.736 26.6527 284.518C25.9529 285.234 24.6312 286.073 25.6419 287.146C26.6527 288.219 27.5546 287.146 28.2699 286.447C36.0449 279.387 43.8199 272.343 51.4238 265.19C64.5169 252.998 78.0143 241.118 90.7031 228.429C92.1337 226.999 97.1097 227.232 101.479 226.517C106.424 225.708 111.354 224.806 116.298 223.889C119.315 223.282 122.518 223.593 125.551 222.785C133.108 220.67 140.665 219.255 148.518 220.266C150.54 220.561 151.441 219.659 151.846 217.653C151.939 217.249 151.846 216.845 152.25 216.643C152.732 217.114 153.326 217.455 153.977 217.632C154.627 217.809 155.312 217.816 155.966 217.653C166.276 216.021 170.257 214.326 175.109 215.834C176.461 216.223 186.242 214.621 190.923 215.834C202.197 218.649 213.688 220.499 225.133 222.878C225.852 223.046 226.601 223.043 227.319 222.87C228.037 222.698 228.705 222.359 229.269 221.883C233.297 218.555 237.526 215.228 241.709 212.009C242.152 211.635 242.691 211.393 243.264 211.309C251.63 210.5 259.98 209.287 268.346 208.588C272.669 208.277 272.669 208.183 272.576 212.506C272.38 217.284 272.582 222.069 273.182 226.812C274.193 233.359 276.899 236.282 282.652 236.889C288.406 237.495 293.537 237.293 298.56 234.774C299.704 234.348 300.673 233.552 301.312 232.512C301.952 231.473 302.226 230.249 302.09 229.036C301.67 226.113 301.53 222.987 301.203 219.861ZM192.027 159.636C192.59 159.249 193.256 159.038 193.94 159.03C200.797 157.21 207.344 154.691 213.984 152.483C215.803 151.877 217.513 151.473 219.333 150.928C219.561 150.816 219.823 150.795 220.066 150.871C220.309 150.946 220.514 151.111 220.639 151.333C226.223 159.229 232.382 166.703 239.066 173.693C239.082 173.833 239.119 173.969 239.175 174.098H235.536C235.233 174.086 234.937 174.008 234.668 173.868C234.399 173.728 234.164 173.53 233.981 173.289C231.571 170.972 229.145 168.624 226.828 166.338C226.484 165.919 226.012 165.623 225.484 165.497C224.956 165.371 224.401 165.42 223.904 165.639C218.773 167.194 213.641 168.857 208.51 170.304C205.851 171.159 206.24 171.454 208.401 174.347C206.084 174.938 205.587 174.735 204.171 172.932C201.264 168.578 200.797 167.505 201.357 166.183C201.532 165.594 201.485 164.961 201.224 164.405C200.963 163.849 200.507 163.408 199.942 163.166C197.143 161.782 196.832 161.938 191.887 159.838C191.906 159.755 191.956 159.683 192.027 159.636ZM233.017 174.036C233.126 174.144 232.628 173.942 232.317 173.942C225.475 174.144 218.726 174.238 211.978 174.533C211.222 174.653 210.447 174.522 209.773 174.159C209.099 173.797 208.563 173.224 208.246 172.527C208.015 172.099 207.744 171.692 207.437 171.314C213.19 169.604 218.726 167.893 224.355 166.183C224.655 166.051 224.986 166.009 225.309 166.062C225.632 166.114 225.932 166.259 226.175 166.478C228.318 169.118 230.602 171.641 233.017 174.036ZM203.207 174.642L185.885 175.544C184.33 175.653 184.983 174.238 184.485 173.538C186.805 173.701 189.136 173.565 191.42 173.134C192.092 173.112 192.732 172.843 193.218 172.378C193.703 171.913 193.999 171.285 194.048 170.615C194.142 169.806 194.344 169.402 195.355 169.713C196.089 169.9 196.857 169.906 197.594 169.73C198.331 169.554 199.014 169.201 199.584 168.702C199.989 168.391 200.284 168.298 200.486 168.5C200.688 168.702 200.89 169.2 201.093 169.402C203.192 173.896 204.996 174.393 203.207 174.642ZM159.294 166.183C159.699 165.872 160.009 165.374 160.414 165.172C165.728 162.346 170.665 158.861 175.109 154.8C175.478 154.384 175.979 154.107 176.529 154.016C177.078 153.926 177.642 154.027 178.125 154.303C182.992 156.464 190.565 162.078 197.267 163.259C197.511 163.283 197.748 163.352 197.967 163.462C198.978 163.959 200.191 164.161 200.082 165.67C199.973 167.178 198.776 167.489 197.672 167.8C196.941 167.937 196.204 168.035 195.463 168.095C194.748 168.189 194.251 168.189 194.048 167.287C193.846 166.385 193.038 166.385 192.338 166.183C189.705 165.75 187.044 165.516 184.376 165.483C182.87 165.542 181.395 165.038 180.24 164.068C179.726 163.538 179.09 163.143 178.389 162.915C177.687 162.687 176.94 162.635 176.213 162.762C175.715 162.855 175.109 163.057 175.217 163.664C175.326 164.27 175.824 164.27 176.213 164.27C178.701 164.27 179.976 166.758 183.568 167.085L191.343 167.691C192.151 167.8 192.898 167.987 192.758 168.997C192.618 170.008 193.162 171.112 191.545 171.314C190.518 171.49 189.476 171.558 188.435 171.517C184.361 171.377 179.478 170.257 177.146 171.423C174.004 172.551 170.767 173.394 167.473 173.942C166.556 174.113 166.09 173.087 159.419 167.287C158.688 167.085 158.688 166.68 159.294 166.183ZM183.49 175.715L170.086 176.617C169.767 176.633 169.451 176.557 169.175 176.397C168.899 176.236 168.675 176 168.531 175.715C171.996 175.518 175.355 174.448 178.296 172.605C178.701 172.31 179.012 172.512 179.416 172.512C180.237 172.746 181.082 172.881 181.935 172.916C182.245 172.879 182.56 172.936 182.837 173.08C183.115 173.225 183.342 173.449 183.49 173.725C183.49 173.818 183.583 173.818 183.583 173.927C183.783 174.268 183.919 174.642 183.988 175.031C184.174 175.715 183.879 175.715 183.49 175.715ZM151.861 166.385C151.457 165.981 150.648 165.67 151.457 164.83C152.266 163.99 152.468 163.913 153.167 164.628C156.635 167.878 175.653 184.843 176.492 185.574C176.439 185.567 176.386 185.572 176.335 185.588C176.284 185.604 176.237 185.631 176.197 185.667C176.003 185.741 175.798 185.778 175.591 185.776C173.476 187.331 172.263 185.869 170.926 184.47C167.458 181.002 159.434 173.305 157.537 171.672C156.612 170.885 155.735 170.043 154.909 169.153C153.945 168.298 152.856 167.287 151.846 166.385H151.861ZM171.408 188.031C169.853 189.181 168.08 190.145 166.463 191.265C165.452 191.965 165.654 190.861 165.561 190.55C164.954 187.238 164.348 183.801 163.648 180.178C166.369 182.604 168.889 184.843 171.423 187.129C171.89 187.533 171.796 187.751 171.392 188.031H171.408ZM155.391 194.577C152.85 193.832 150.248 193.311 147.616 193.022C146.403 192.82 146.605 192.416 147.01 191.716C148.829 188.497 150.944 185.372 152.856 182.246C154.054 180.24 155.267 178.825 157.786 179.229C158.19 179.229 158.594 179.12 158.999 179.12C159.901 179.12 161.005 178.219 161.611 178.825C162.218 179.431 162.015 180.644 162.218 181.546C162.715 184.874 163.119 188.295 163.633 191.716C163.764 192.159 163.721 192.636 163.513 193.049C163.305 193.462 162.947 193.781 162.513 193.94C161.812 194.245 161.14 194.615 160.507 195.044C159.403 195.65 158.19 196.35 156.977 196.956C157.06 196.695 157.097 196.421 157.086 196.148C157.055 195.184 156.184 194.873 155.376 194.577H155.391ZM152.965 171.252C153.37 170.941 153.681 170.755 154.069 171.159C155.889 172.869 157.708 174.58 159.823 176.492C155.779 177.401 151.565 177.191 147.632 175.886C149.436 174.347 151.099 172.776 152.95 171.314L152.965 171.252ZM152.965 179.027C149.675 182.967 146.775 187.217 144.304 191.716C144.102 192.12 144.009 192.431 143.402 192.322C139.375 191.918 135.347 191.918 131.32 191.825C131.32 191.218 131.817 191.125 132.113 190.923C142.531 183.894 144.086 180.753 144.708 180.442C148.02 177.565 148.425 177.457 152.95 179.167L152.965 179.027ZM100.577 88.324C100.939 87.8774 101.206 87.3614 101.361 86.8078C101.516 86.2543 101.556 85.6748 101.479 85.1052C101.693 79.6914 103.072 74.3875 105.522 69.5552C114.852 50.6464 133.279 43.3534 151.55 46.79C160.414 48.345 164.643 53.2432 166.245 61.7024C167.147 66.5385 165.95 71.1724 164.69 75.7907C162.909 81.8347 159.926 87.457 155.92 92.3204L155.018 93.5177C154.268 94.2168 153.795 95.1618 153.683 96.1807C153.572 97.1996 153.83 98.2246 154.411 99.069C155.966 101.588 154.614 106.222 152.499 108.228C149.98 110.452 146.45 109.643 145.641 106.409C145.551 105.839 145.257 105.321 144.813 104.952C144.37 104.583 143.808 104.388 143.231 104.403C142.083 104.231 141.005 103.74 140.121 102.988C139.717 102.692 139.312 102.49 138.908 102.894C138.764 103.063 138.684 103.278 138.684 103.501C138.684 103.723 138.764 103.938 138.908 104.107C139.755 105.272 141.02 106.064 142.438 106.315C143.247 106.409 143.853 106.72 143.993 107.622C144.084 107.974 144.22 108.314 144.397 108.632C145.703 109.736 145.004 110.84 144.304 111.96C143.953 112.55 143.416 113.008 142.777 113.261C142.139 113.514 141.434 113.549 140.774 113.36C137.664 111.805 135.487 108.088 134.321 104.807C134.134 104.403 134.025 103.703 133.419 103.905C132.813 104.107 132.921 104.605 133.015 105.102C133.932 108.726 135.036 112.162 138.861 113.873C140.074 114.37 140.074 116.687 138.861 117.496C138.134 117.957 137.305 118.235 136.447 118.306C135.588 118.376 134.725 118.237 133.932 117.9C132.931 117.546 131.845 117.508 130.822 117.791C127.294 118.856 123.562 119.064 119.937 118.398C118.478 118.17 117.151 117.418 116.205 116.283L113.515 112.598C112.903 111.685 112.233 110.812 111.509 109.985C111.105 109.472 110.498 108.974 109.954 109.472C109.41 109.97 109.659 110.685 110.047 111.183C110.763 112.1 111.369 113.095 112.069 114.013C113.142 115.568 111.214 114.93 110.249 118.133C110.19 118.265 110.158 118.408 110.156 118.553C110.155 118.698 110.183 118.842 110.24 118.975C110.297 119.108 110.382 119.228 110.488 119.326C110.594 119.425 110.719 119.501 110.856 119.548C111.462 119.751 111.571 119.051 111.665 118.74C112.089 117.749 112.667 116.831 113.375 116.019C114.409 117.457 115.669 118.717 117.107 119.751C114.899 121.072 111.058 125.053 106.424 123.28C105.592 122.914 104.841 122.386 104.216 121.725C102.193 119.566 100.74 116.936 99.9865 114.075C98.4315 108.228 97.3585 102.179 96.1612 96.2389C96.1073 96.111 96.0795 95.9735 96.0795 95.8347C96.0795 95.6958 96.1073 95.5583 96.1612 95.4303C97.3483 92.8959 98.8306 90.5106 100.577 88.324ZM81.2487 98.1983C81.4353 97.3897 82.2439 97.0942 83.1614 97.0942C84.7509 97.1858 86.336 96.8506 87.7523 96.1233C89.1686 95.396 90.3646 94.3031 91.2163 92.9579C92.0249 91.745 93.1289 90.7498 94.0308 89.6302C94.4465 89.2394 94.8825 88.8709 95.337 88.5262C95.8502 88.1219 96.2545 88.4329 96.6588 88.7283C96.8533 88.8792 96.9816 89.0999 97.0164 89.3436C97.0512 89.5874 96.9899 89.8351 96.8454 90.0345C96.659 90.4016 96.4236 90.7416 96.1456 91.0452C95.8502 91.4496 95.648 91.9472 95.337 92.4603C95.2303 92.2071 95.0947 91.967 94.9327 91.745C94.8394 91.4496 94.6373 91.0453 94.233 91.1386C93.8287 91.2319 93.9375 91.745 93.9375 92.056C93.9822 94.671 94.2843 97.2752 94.8394 99.831C95.5436 104.556 96.5513 109.231 97.8561 113.826C98.744 116.879 100.294 119.698 102.397 122.083C103.597 123.69 105.337 124.81 107.297 125.236C109.257 125.661 111.305 125.365 113.064 124.4C115.062 123.677 116.723 122.243 117.729 120.373C118.133 119.657 118.538 120.062 118.833 120.17C119.268 120.269 119.71 120.336 120.155 120.373C121.71 120.668 121.554 121.181 120.45 123.389C118.865 126.844 116.451 129.855 113.424 132.155C110.398 134.455 106.85 135.974 103.096 136.576C101.785 136.863 100.418 136.759 99.165 136.275C97.9124 135.791 96.8299 134.949 96.0523 133.854C91.7605 128.49 87.9508 120.917 86.3802 119.144C84.7923 116.877 83.6959 114.303 83.1614 111.587C82.3528 108.477 81.4353 105.367 80.6423 102.257C80.5327 100.875 80.7401 99.4873 81.2487 98.1983ZM47.3964 210.594C46.1679 211.029 45.5615 211.729 41.8606 215.43C39.8391 217.249 38.6417 217.544 36.4181 216.145C26.0152 209.925 25.1444 207.344 23.9781 198.014C21.0392 177.099 21.9566 181.904 20.5571 174.533C19.0954 165.965 14.2438 160.663 9.87425 151.379C9.33698 150.374 9.1177 149.229 9.24543 148.096C9.37316 146.963 9.84187 145.896 10.5896 145.035C12.8116 141.711 15.6454 138.841 18.9399 136.576C25.7041 132.268 27.6479 130.558 36.0449 128.505C34.7886 132.108 33.7143 135.772 32.826 139.483C31.1041 146.355 32.0369 153.624 35.4384 159.838C36.3377 161.306 36.8795 162.964 37.0199 164.679C37.1604 166.394 36.8956 168.119 36.247 169.713C34.1322 174.735 34.692 179.882 36.3559 184.921C38.1087 190.229 40.4397 195.329 43.3067 200.128C45.1105 203.238 45.9191 206.768 47.6296 209.894C47.9095 210.189 47.8007 210.391 47.3964 210.594ZM71.5766 243.249C71.0635 243.653 70.8613 243.746 70.3637 243.14C67.1331 239.218 64.2015 235.06 61.5935 230.7C70.6903 231.788 78.9473 228.756 87.4843 228.585C82.1506 233.654 76.9103 238.397 71.53 243.233L71.5766 243.249ZM149.529 215.259C149.42 216.165 149.451 217.083 149.622 217.98C149.933 219.286 149.731 219.535 148.425 219.395C140.976 217.995 139.515 217.327 127.868 219.799C121.539 221.152 121.648 221.09 120.621 221.354C100.919 225.693 105.849 224.371 102.288 225.086C101.293 225.086 90.7498 226.999 82.0729 227.403C80.9711 227.49 79.8657 227.521 78.7607 227.497C74.018 227.605 69.2908 228.507 64.548 229.051C63.4131 229.188 62.2625 229.015 61.2172 228.553C60.1719 228.091 59.2705 227.355 58.6079 226.424C56.6621 224.499 55.5129 221.911 55.3891 219.177C55.2698 217.745 54.6666 216.396 53.6786 215.352C49.6822 210.827 39.4503 190.814 37.4599 177.876C37.239 175.572 37.4768 173.247 38.1597 171.034C38.7017 169.443 38.919 167.758 38.7988 166.081C38.6786 164.404 38.2234 162.767 37.4599 161.269C34.3795 155.607 33.4831 149.012 34.9408 142.733C36.4181 134.523 38.424 124.866 45.0173 119.657C45.3127 119.471 45.6237 119.16 45.9191 118.957C60.6294 109.161 54.7982 116.205 74.2357 103.252C76.7548 101.697 77.4856 101.153 78.4964 103.765C80.7822 109.985 82.2284 117.014 85.836 122.876C90.6098 130.356 92.3981 133.87 94.8394 136.638C96.9231 139.001 99.3334 139.95 104.651 139.079C111.027 138.037 120.295 131.444 124.073 121.274C124.462 120.264 125.286 120.575 125.986 120.575C125.986 120.575 126.095 120.575 126.095 120.668C130.527 125.504 134.15 130.449 133.046 137.586C131.909 143.061 131.233 148.622 131.024 154.209C130.919 155.665 131.245 157.12 131.961 158.392C132.677 159.664 133.752 160.697 135.052 161.362C138.162 163.073 138.286 164.783 137.369 167.707C137.073 168.609 136.762 169.417 136.56 170.319C136.45 170.629 136.403 170.958 136.422 171.286C136.44 171.615 136.524 171.936 136.669 172.232C137.135 173.647 137.82 172.496 137.975 172.341C139.079 170.786 138.675 171.081 140.292 172.185C141.773 173.261 142.921 174.732 143.604 176.43C143.853 177.052 144.148 176.975 144.599 176.71C145.517 176.197 146.248 176.617 145.253 177.519C144.473 178.149 143.741 178.835 143.06 179.571C139.159 183.649 134.803 187.265 130.076 190.348C128.297 191.717 126.1 192.431 123.856 192.369C122.845 192.369 121.741 192.462 120.528 192.571C121.478 188.758 122.185 184.889 122.643 180.986C123.785 171.967 124.019 162.856 123.343 153.789V153.494C123.14 152.888 123.249 151.939 122.441 151.939C121.632 151.939 121.834 152.841 121.834 153.494C121.197 174.176 121.617 173.585 118.522 192.167C118.502 192.374 118.41 192.568 118.262 192.716C118.115 192.863 117.921 192.955 117.713 192.975C115.77 193.219 113.851 193.625 111.976 194.188C110.965 194.484 109.954 194.686 108.866 194.981C107.311 195.37 106.844 195.774 106.844 194.577C106.844 192.058 105.631 191.358 103.221 192.058C101.414 192.595 99.8693 193.78 98.8824 195.386C98.4937 195.899 98.0894 196.941 97.3274 196.692C95.7724 196.07 96.7521 192.307 96.1301 189.943C95.6973 188.656 94.855 187.545 93.7319 186.782C92.6087 186.018 91.2665 185.643 89.9101 185.714C89.3036 185.822 88.6039 186.025 88.6972 186.724C88.7905 187.424 89.5058 187.035 89.9101 187.035C90.5449 187.002 91.1796 187.105 91.7712 187.338C92.3628 187.57 92.8978 187.927 93.3398 188.384C93.7819 188.841 94.121 189.387 94.334 189.986C94.5471 190.585 94.6293 191.222 94.5751 191.856C94.472 193.108 94.5717 194.368 94.8705 195.588C95.0514 196.305 95.4221 196.96 95.9435 197.485C96.9542 198.589 97.7628 198.698 98.7736 197.578C100.329 196.023 101.059 193.147 104.309 193.147C105.211 193.147 105.522 193.458 105.413 194.359C105.282 195.156 105.251 195.966 105.32 196.77C105.522 197.578 106.02 198.325 106.875 197.889C109.806 196.838 112.848 196.128 115.941 195.775C121.668 194.857 127.465 194.451 133.263 194.562H138.208C137.729 195.242 137.288 195.948 136.887 196.676C133.515 202.697 130.813 209.069 128.832 215.678C128.381 217.062 131.304 217.809 132.159 215.321C133.87 210.36 136.047 202.15 139.219 197.376C140.401 195.51 140.105 194.359 141.925 194.359C146.11 194.503 150.273 195.024 154.365 195.914C155.282 196.225 155.376 196.614 155.08 197.469C152.23 203.029 150.353 209.035 149.529 215.228V215.259ZM171.299 213.346C165.995 213.323 160.73 214.244 155.749 216.067C154.334 216.565 152.126 215.368 152.219 213.75C152.53 212.444 152.825 210.734 153.23 209.085C154.038 206.271 154.94 203.441 155.749 200.533C155.951 199.926 156.246 199.724 156.853 199.413C158.732 198.431 160.522 197.287 162.202 195.992L176.601 187.035C177.814 186.227 178.918 187.035 179.82 187.533C184.268 189.761 188.879 191.648 193.613 193.178C194.328 193.38 194.422 193.675 193.924 194.188C193.321 194.787 192.799 195.461 192.369 196.194C191.56 197.609 190.659 197.749 189.352 196.894C183.677 193.566 183.272 192.929 182.51 193.582C181.748 194.235 182.293 194.779 182.51 195.386C183.708 198.713 185.014 201.932 186.336 205.26C187.533 208.37 186.958 207.344 182.199 209.925C181.791 210.224 181.298 210.386 180.792 210.386C180.286 210.386 179.793 210.224 179.385 209.925C179.164 209.787 178.915 209.698 178.657 209.664C178.398 209.63 178.135 209.653 177.886 209.729C177.637 209.806 177.407 209.935 177.212 210.109C177.017 210.282 176.862 210.495 176.757 210.734C175.311 213.113 173.709 213.393 171.283 213.315L171.299 213.346ZM195.37 200.253C194.609 199.533 193.903 198.759 193.255 197.936C192.851 197.532 193.255 197.236 193.458 197.034C195.681 194.531 197.672 193.084 196.07 192.198C195.749 192.038 195.416 191.902 195.075 191.794C190.873 190.578 186.763 189.066 182.775 187.269C182.168 187.066 181.468 186.958 181.22 186.351C180.813 185.29 180.572 184.173 180.504 183.039C180.364 182.059 181.919 182.464 187.253 182.122C191.125 181.888 250.79 179.12 252.563 178.794C253.372 178.701 253.372 179.198 253.574 179.602C258.705 188.124 259.794 189.959 267.367 202.57C266.112 203.033 264.785 203.27 263.448 203.27C257.695 203.876 209.863 208.417 203.41 209.023C203.13 209.077 202.84 209.036 202.586 208.907C202.333 208.777 202.13 208.566 202.01 208.308C200.181 205.314 197.941 202.592 195.355 200.222L195.37 200.253ZM197.687 205.493C197.594 205.587 197.594 205.695 197.485 205.695C196.179 204.98 194.873 204.28 193.66 203.581C193.053 203.176 193.551 202.881 193.862 202.679C194.173 202.477 194.468 201.668 194.966 202.368C195.93 203.347 196.77 204.451 197.672 205.462L197.687 205.493ZM192.82 201.233C192.322 201.73 191.918 202.337 191.016 201.73C189.203 200.481 187.318 199.339 185.372 198.309C184.656 197.905 184.563 197.096 184.47 196.303C187.58 197.998 189.135 199.413 190.814 198.916C191.809 198.62 192.12 199.211 192.618 199.817C193.115 200.424 193.442 200.595 192.82 201.233ZM227.668 220.266C227.385 220.545 227.032 220.744 226.646 220.839C226.26 220.935 225.856 220.925 225.475 220.81C217.109 219.255 196.257 215.476 194.375 215.181C208.883 214.466 223.391 213.159 238.288 211.853C236.858 212.911 229.067 219.115 227.683 220.266H227.668ZM271.208 206.271C238.102 210.08 252.221 208.557 226.797 210.702C217.731 211.402 208.665 212.257 199.6 212.708C188.435 213.19 176.461 214.419 176.43 214.419C176.943 213.719 177.239 213.222 177.55 212.708C178.732 210.936 179.245 213.735 182.075 212.304C183.785 211.511 185.605 210.749 187.315 209.894C189.026 209.039 189.119 208.183 188.73 206.473C188.217 204.358 187.004 202.445 186.211 200.02C188.932 202.134 191.638 203.752 194.157 205.462C196.179 206.768 198.294 207.981 200.377 209.194C201.478 209.812 202.749 210.058 204 209.894C209.246 209.293 214.486 208.774 219.721 208.339C225.351 207.826 262.624 204.109 267.755 203.674C268.968 203.581 268.766 203.067 268.362 202.368C267.056 200.253 254.864 179.913 254.569 179.4C254.385 179.026 254.096 178.713 253.737 178.5C253.378 178.288 252.964 178.184 252.548 178.203C245.192 178.498 180.738 181.717 180.038 181.717C179.027 181.717 178.918 182.028 179.229 182.93C179.569 183.935 179.773 184.981 179.836 186.04C179.613 185.939 179.409 185.802 179.229 185.636C177.862 184.678 176.582 183.601 175.404 182.417C173.849 181.095 172.481 179.789 170.972 178.39C175.404 178.187 179.727 177.876 183.956 177.674C203.503 176.477 223.034 176.477 242.58 176.119C245.503 176.01 253.465 175.808 254.569 175.808C255.272 175.686 255.996 175.81 256.619 176.158C257.242 176.506 257.726 177.058 257.99 177.721C261.815 184.065 265.547 190.519 269.777 196.552C271.892 199.662 271.487 202.601 271.783 205.727C272.125 206.162 271.705 206.271 271.192 206.271H271.208ZM291.811 219.457C291.306 219.619 290.762 219.619 290.256 219.457C289.619 214.466 289.603 211.682 289.401 207.748C289.277 204.716 288.919 197.812 289.121 195.65C289.968 195.622 290.81 195.523 291.64 195.355C292.102 203.381 292.154 211.426 291.796 219.457H291.811ZM287.675 228.429C288.583 226.414 289.19 224.277 289.479 222.085C289.588 221.479 289.883 221.479 290.381 221.479C290.878 221.479 291.189 221.37 291.298 221.976C291.465 223.298 291.203 224.639 290.551 225.8C289.898 226.962 288.89 227.884 287.675 228.429ZM291.345 193.489C290.607 193.67 289.842 193.707 289.09 193.598C289.09 192.556 289.183 188.932 289.199 186.102C289.28 183.589 289.171 181.073 288.872 178.576C289.883 178.669 289.992 179.369 290.085 179.976C290.543 181.945 290.788 183.957 290.816 185.978C290.925 187.595 291.376 193.271 291.391 193.489H291.345ZM299.12 220.67C299.353 223.485 299.229 226.315 299.524 229.129C299.624 229.908 299.461 230.698 299.061 231.374C298.661 232.05 298.047 232.573 297.316 232.861C292.156 235.164 286.418 235.842 280.864 234.805C277.536 234.401 275.624 231.788 275.017 227.559C274.629 224.837 274.722 222.116 274.426 218.695C275.126 211.651 273.711 203.892 274.224 196.132C274.268 195.679 274.219 195.222 274.08 194.789C273.941 194.356 273.715 193.956 273.416 193.613C272.7 192.602 273.307 192.058 274.115 192.058C276.743 192.058 279.247 191.156 281.766 191.047C283.321 190.954 285 190.845 286.602 190.643C287.613 190.55 287.722 191.047 287.613 191.856C287.504 192.664 288.219 193.675 286.602 193.675C283.585 193.769 280.46 193.473 277.443 193.364C276.837 193.364 275.888 193.069 275.888 193.971C275.888 194.873 276.603 194.981 277.443 195.075C280.488 195.419 283.554 195.554 286.618 195.479C287.519 195.479 287.722 195.681 287.722 196.583C287.722 214.263 289.759 216.798 288.732 219.55C287.628 222.66 287.022 225.895 285.311 228.616C284.394 230.171 284.705 230.638 286.509 230.638C287.461 230.652 288.405 230.457 289.275 230.068C290.144 229.678 290.918 229.104 291.542 228.383C292.166 227.663 292.624 226.816 292.886 225.899C293.147 224.983 293.205 224.021 293.055 223.08C292.687 221.621 292.725 220.088 293.164 218.649C293.465 217.641 293.565 216.585 293.46 215.539C293.724 208.525 293.211 198.434 292.962 195.899C292.962 194.437 293.739 195.23 296.881 194.344C297.394 194.251 298 194.048 298 193.442C298 192.836 297.285 192.633 296.694 192.633C293.708 192.633 292.962 193.52 292.962 191.638C292.962 190.83 293.164 190.519 293.973 190.627C295.569 190.791 297.137 191.162 298.638 191.732C299.633 192.136 299.944 192.836 299.431 193.753C298.519 195.553 298.136 197.575 298.327 199.584C298.296 206.815 298.56 213.719 299.089 220.67H299.12Z" fill="#402604"/>
<path d="M253.372 83.3947C253.449 80.5646 253.372 80.5646 256.186 80.5646C270.99 80.5646 285.731 80.8756 300.41 80.5646C301.128 80.6109 301.848 80.5104 302.525 80.2691C302.821 80.1603 303.132 80.1603 303.225 79.756C303.225 79.0718 302.308 78.9629 301.67 78.9629H301.172C296.647 78.5586 292.107 78.7608 287.675 78.6519C284.083 78.6519 284.207 78.6519 284.052 75.2309C284.052 73.9247 284.456 73.6759 285.607 73.6759H300.006C300.815 73.6759 301.561 73.4893 301.561 72.4786C301.561 71.4678 300.861 71.4678 300.162 71.4678C294.61 71.5611 289.074 71.5611 283.539 71.67C283.315 71.6491 283.09 71.6805 282.881 71.7615C282.672 71.8426 282.485 71.9712 282.334 72.1371C282.183 72.303 282.073 72.5016 282.012 72.7174C281.952 72.9332 281.942 73.1602 281.984 73.3805C281.919 74.5891 281.956 75.801 282.093 77.0036C282.295 78.4187 281.782 78.823 280.382 78.7141C271.519 78.6208 262.748 78.6208 253.947 78.512C252.034 78.512 251.63 78.823 251.63 80.6268C251.428 91.5118 251.024 123.638 251.024 128.832C249.469 128.832 249.22 128.334 249.22 127.277C248.738 92.2582 248.816 106.378 248.816 102.91C248.816 101.355 248.116 100.391 246.39 100.593C245.395 100.686 245.084 100.189 245.084 99.2868C244.997 98.0932 244.794 96.911 244.477 95.7569C244.482 95.571 244.439 95.387 244.352 95.2224C244.265 95.0578 244.138 94.9182 243.982 94.8168C243.826 94.7155 243.647 94.6557 243.461 94.6434C243.276 94.631 243.09 94.6664 242.922 94.7462C241.926 94.914 240.915 94.9817 239.905 94.9483C239.624 94.9326 239.342 94.9765 239.078 95.0772C238.814 95.1779 238.575 95.3331 238.375 95.5327C238.175 95.7323 238.02 95.9718 237.919 96.2355C237.819 96.4993 237.775 96.7813 237.791 97.0631C237.733 97.5798 237.733 98.1014 237.791 98.6181C238.086 100.173 237.588 101.246 235.769 101.339C234.867 101.339 234.059 101.853 234.214 102.894C234.821 106.829 234.929 110.856 235.52 114.79C235.925 117.807 236.438 120.824 236.842 123.856C236.935 124.556 237.246 125.255 235.831 125.162C234.337 125.131 232.89 125.69 231.804 126.717C228.383 129.563 231.804 130.962 232.41 132.937C232.524 133.327 232.592 133.729 232.612 134.134C232.612 151.784 230.964 157.459 234.323 160.227C237.682 162.995 244.586 163.337 248.116 161.331C248.613 161.036 249.329 160.725 249.127 160.025C248.924 159.325 248.116 159.419 247.572 159.512C246.156 159.714 244.757 160.025 243.249 160.321C238.91 161.036 235.691 159.216 234.478 155.656C234.299 155.065 234.164 154.462 234.074 153.852C234.09 153.512 234.059 153.172 233.981 152.841C233.981 140.168 233.981 140.074 233.872 138.846C233.763 137.618 233.779 136.731 233.779 135.736C233.822 134.818 233.717 133.899 233.468 133.015C233.267 132.163 232.931 131.349 232.472 130.604C232.242 130.281 232.145 129.882 232.2 129.488C232.255 129.095 232.458 128.738 232.768 128.49C233.926 127.436 235.361 126.735 236.904 126.468C236.977 127.117 237.112 127.758 237.309 128.381C237.495 129.283 237.402 129.796 236.298 129.594C235.691 129.485 234.992 129.687 234.992 130.293C234.992 130.9 235.691 130.993 236.189 131.102C240.854 131.802 245.768 132.657 250.495 130.604C250.495 143.604 249.593 153.929 250.293 165.654C250.402 167.054 250.899 167.567 252.205 167.567C269.497 167.256 256.87 167.256 283.134 167.256C282.528 167.769 282.124 168.158 281.719 168.562C279.807 170.288 277.785 171.89 275.873 173.6C275.266 174.113 274.675 174.611 275.266 175.513C275.882 176.39 276.814 176.995 277.866 177.201C278.918 177.406 280.009 177.197 280.911 176.617L291.485 169.371C292.387 168.764 292.698 168.873 293.04 169.775C293.461 170.892 293.981 171.969 294.595 172.994C297.114 177.83 295.512 176.835 301.141 176.726C302.696 176.726 303.163 176.119 302.696 174.518C301.839 171.947 301.168 169.317 300.69 166.649C300.581 165.654 300.286 165.094 299.882 164.939C299.402 164.695 298.853 164.624 298.327 164.737C283.616 165.048 268.906 165.25 254.211 165.545C251.988 165.545 252.097 165.545 251.786 163.431C251.583 162.218 251.786 161.876 253.201 161.72C267.507 161.316 299.229 160.165 300.737 160.165C300.939 160.165 301.032 160.165 301.141 160.056C301.258 160.049 301.372 160.016 301.474 159.959C301.576 159.902 301.664 159.823 301.731 159.727C301.798 159.632 301.843 159.522 301.862 159.407C301.881 159.291 301.874 159.173 301.841 159.061C301.841 158.346 301.235 158.144 300.737 158.05C300.737 158.05 268.704 158.952 253.807 159.45C252.392 159.45 251.894 159.248 251.988 157.739C252.47 147.352 252.967 97.6851 253.372 83.3947ZM243 120.715V122.627C242.285 117.403 242.191 112.255 241.445 107.077C241.243 105.367 240.838 103.75 240.527 102.039C240.434 101.744 240.325 101.231 240.03 101.137C238.117 100.126 239.019 98.416 239.128 97.1098C239.237 95.8036 240.683 96.5033 241.647 96.3012C242.611 96.099 242.549 96.7055 242.642 97.3119C242.934 99.0687 243.017 100.854 242.891 102.63C242.689 108.663 243.093 114.619 243 120.652V120.715ZM240.574 129.283C239.47 129.283 238.77 129.283 238.661 127.728C238.366 123.296 237.759 118.958 237.106 114.635C236.609 110.996 236.407 107.373 236.002 103.656C235.893 102.101 237.215 102.646 237.915 102.335C238.615 102.024 238.926 102.537 239.128 103.252C239.944 107.263 240.412 111.336 240.527 115.428C241.196 126.561 240.916 121.477 241.445 127.417V127.619C241.383 128.319 241.989 129.314 240.574 129.221V129.283ZM247.323 127.728C247.272 128.033 247.152 128.322 246.974 128.574C246.795 128.827 246.562 129.035 246.291 129.185C246.02 129.334 245.719 129.421 245.411 129.438C245.102 129.455 244.794 129.402 244.508 129.283C243.575 128.816 245.115 128.567 244.508 106.518C244.508 105.413 244.601 104.294 244.71 103.19C244.71 102.583 244.71 101.977 245.612 102.086C246.514 102.195 246.918 102.288 246.918 103.299C247.058 108.679 247.323 112.427 247.323 127.603V127.728ZM279.154 174.471C278.656 174.86 278.252 174.658 277.847 174.269C277.443 173.88 278.05 173.554 278.252 173.351C280.46 171.143 283.725 169.122 285.747 166.712C285.88 166.586 286.041 166.492 286.216 166.438C286.391 166.384 286.576 166.372 286.758 166.401H291.143C286.804 168.997 283.01 171.625 279.154 174.347V174.471ZM300.115 172.605C300.224 173.103 300.924 173.911 299.913 174.02C298.902 174.129 297.907 174.922 297.3 173.616C296.088 171.19 294.983 168.951 293.771 166.463C293.973 166.354 293.973 166.261 294.082 166.261C298.513 165.856 298.513 165.856 299.617 170.195C299.695 170.817 300.006 171.625 300.115 172.605Z" fill="#402604"/>
<path d="M208.557 235.878C208.261 235.163 207.437 235.178 206.831 235.069C199.88 234.261 126.157 225.506 119.113 224.604C118.441 224.445 117.738 224.473 117.08 224.684C116.423 224.895 115.835 225.281 115.381 225.802L105.413 237.293C104.605 238.195 104.107 239.703 102.894 240.014L101.479 240.31C99.6136 240.58 97.7343 240.746 95.8502 240.807C94.2952 241.009 94.0309 240.916 94.2952 242.518C95.306 250.479 96.2079 258.441 97.2186 266.294C97.3119 267.102 97.2186 267.398 96.3167 267.305C92.0871 266.791 87.7487 266.294 83.2236 265.75C83.628 265.258 83.9969 264.738 84.3277 264.195C87.5465 260.074 90.8742 256.031 94.093 251.91C94.4973 251.397 94.9949 250.899 94.404 250.355C93.8131 249.811 93.3933 250.448 92.989 250.853C88.9616 255.689 84.9341 260.416 80.9066 265.252C79.9892 266.263 80.3935 267.165 81.6997 267.367C86.6446 268.082 91.574 268.688 96.5189 269.279C97.3119 269.388 97.514 269.482 97.6229 270.29C98.3226 276.837 99.1779 283.29 99.9398 289.728C100.142 290.941 100.64 291.438 101.946 291.283C108.29 290.381 143.138 285.545 154.318 283.943C157.039 283.539 157.428 283.026 156.029 280.709C155.033 278.998 154.116 277.288 153.012 275.375C153.712 275.577 158.408 276.79 164.395 278.594C164.784 278.768 165.218 278.813 165.634 278.724C166.051 278.634 166.428 278.414 166.712 278.096C180.302 264.49 194.002 251.008 207.608 237.402C208.152 237.091 208.868 236.671 208.557 235.878ZM105.009 289.23C102.288 289.65 102.195 289.728 101.899 287.006C101.899 286.851 96.4567 243.264 96.3634 242.798C96.1612 241.538 97.5141 242.051 98.587 241.787C100.997 241.694 103.408 241.585 105.927 241.383C107.668 241.227 128.101 239.921 128.801 239.828C130.465 239.626 130.636 241.056 131.118 241.538C156.791 286.462 153.65 280.74 153.976 281.735C110.545 288.002 131.895 285.063 105.009 289.23ZM204.529 238.071L166.261 276.028C166.021 276.343 165.679 276.566 165.294 276.66C164.909 276.753 164.504 276.711 164.146 276.541C160.414 275.437 156.588 274.318 152.872 273.307C152.416 273.194 151.99 272.983 151.624 272.687C151.259 272.392 150.963 272.019 150.757 271.596C144.537 260.929 138.317 250.153 132.097 239.47C131.899 239.039 131.59 238.668 131.202 238.395C130.815 238.122 130.362 237.957 129.889 237.915C128.676 237.915 130.636 237.775 117.807 238.817C114.697 239.128 118.88 238.661 107.326 239.626C106.922 239.626 106.517 239.719 106.113 239.719H105.32L113.095 230.964C114.106 229.751 115.303 228.741 116.205 227.434C116.484 227.018 116.885 226.698 117.352 226.517C117.819 226.336 118.331 226.304 118.818 226.424C125.768 227.325 204.032 236.702 205.136 236.795C205.431 237.588 204.918 237.791 204.514 238.102L204.529 238.071Z" fill="#402604"/>
<path d="M281.066 261.053C280.771 260.96 280.367 260.758 280.056 260.649C269.793 257.228 259.514 253.807 249.235 250.277C246.802 249.293 244.109 249.151 241.585 249.873C226.579 254.211 211.573 258.441 196.49 262.873C195.774 263.075 194.935 263.168 194.779 264.179C194.624 265.19 195.572 265.485 196.334 265.734C203.892 269.45 211.542 273.074 219.099 276.806C219.612 277.131 220.203 277.308 220.81 277.319C221.93 277.085 280.569 263.324 280.74 263.215C281.017 263.172 281.274 263.042 281.472 262.843C281.671 262.645 281.801 262.388 281.844 262.111C282.077 261.66 281.564 261.364 281.066 261.053ZM221.976 274.955C221.345 275.126 220.675 275.093 220.064 274.862C208.137 268.984 201.139 265.765 199.009 264.49C204.156 262.935 233.219 254.305 242.72 251.397C243.662 251.04 244.702 251.04 245.643 251.397C255.611 254.709 265.594 258.13 275.655 261.567C275.966 261.66 276.168 261.862 276.666 262.064C262.795 265.252 222.101 274.924 221.945 274.955H221.976Z" fill="#402604"/>
<path d="M240.17 217.7C239.175 217.7 238.615 218.011 238.366 219.115C238.117 220.219 237.76 221.634 237.449 222.94C237.364 223.462 237.079 223.931 236.655 224.247C234.541 225.662 232.628 227.17 230.513 228.678C230.048 228.979 229.672 229.398 229.423 229.893C229.174 230.388 229.062 230.94 229.098 231.493C229.196 234.12 229.092 236.75 228.787 239.361C228.716 239.622 228.701 239.895 228.742 240.163C228.784 240.43 228.881 240.686 229.027 240.913C229.174 241.14 229.367 241.334 229.593 241.482C229.82 241.63 230.075 241.729 230.342 241.771C233.856 242.782 237.386 243.995 241.009 244.881C243.529 245.488 246.141 246.436 248.862 245.892C254.761 244.675 260.553 242.99 266.185 240.854C266.514 240.763 266.799 240.554 266.985 240.268C267.171 239.981 267.246 239.637 267.196 239.299C267.305 235.769 267.398 232.146 267.507 228.616C267.545 228.234 267.456 227.85 267.253 227.524C267.051 227.198 266.746 226.948 266.387 226.812C264.832 226.004 263.277 225.257 261.722 224.387C259.016 222.971 258.908 222.971 259.219 219.861C259.312 218.649 258.908 218.073 257.664 218.042C246.779 217.964 247.121 217.7 240.17 217.7ZM242.689 222.365C242.933 221.773 243.135 221.165 243.295 220.546C243.488 220.094 243.85 219.736 244.304 219.55C244.758 219.364 245.267 219.364 245.721 219.55C245.814 219.55 246.017 219.644 245.923 219.644C245.612 220.857 245.519 222.07 245.115 223.267C244.913 223.982 244.104 223.469 243.902 223.578C242.487 223.998 242.176 223.485 242.689 222.365ZM239.377 222.878C239.563 221.961 239.765 221.059 239.968 220.25C240.372 218.944 241.289 219.753 242.191 219.55C241.694 220.95 241.289 222.163 240.885 223.376C240.683 224.076 240.17 223.78 239.765 223.78C239.066 223.796 239.377 223.282 239.377 222.894V222.878ZM258.814 224.977C259.016 224.589 259.312 224.977 259.607 225.086C260.163 225.423 260.739 225.724 261.333 225.988C265.05 227.294 266.465 229.72 265.361 233.545C265.34 234.187 265.272 234.826 265.159 235.458C264.956 238.879 264.956 238.879 261.629 239.999C257.502 241.412 253.296 242.585 249.033 243.513C245.923 244.291 240.387 242.409 233.623 240.496C229.736 239.377 231.104 240.03 231.104 231.524C231.097 231.171 231.177 230.822 231.337 230.507C231.497 230.192 231.732 229.922 232.022 229.72C237.775 225.32 236.889 225.055 238.864 225.055C244.508 225.459 250.153 225.351 255.782 225.459C256.793 225.802 258.006 226.206 258.814 224.993V224.977ZM254.787 222.365C254.787 221.867 254.973 221.261 254.973 220.81C254.973 219.908 255.378 219.504 256.295 219.706C257.492 219.411 257.695 220.11 257.492 221.012C257.378 221.523 257.31 222.044 257.29 222.567C257.29 223.765 256.497 223.671 255.735 223.671C254.585 223.687 254.787 222.987 254.787 222.365ZM252.361 219.55C254.071 219.55 253.17 220.655 253.263 221.261C253.216 221.627 253.216 221.998 253.263 222.365C253.574 223.376 253.263 223.671 252.159 223.671C251.055 223.671 251.055 222.971 251.148 222.272C251.131 221.962 251.167 221.651 251.257 221.354C251.35 220.67 250.65 219.566 252.361 219.566V219.55ZM249.033 219.55C250.448 219.659 249.438 220.655 249.64 221.105C249.749 221.199 249.64 221.401 249.64 221.51C249.64 222.614 250.044 223.827 248.085 223.718C247.074 223.625 246.779 223.314 246.981 222.412L247.276 220.857C247.323 219.768 247.929 219.473 249.033 219.566V219.55Z" fill="#402604"/>
<path d="M118.18 89.6302C118.771 90.1434 119.486 90.5477 120.186 89.7391C119.782 89.3348 119.377 88.8216 118.973 88.4329C118.252 87.631 117.724 86.6742 117.431 85.6363C117.138 84.5984 117.087 83.507 117.282 82.4463C117.478 81.3856 117.914 80.3839 118.558 79.5185C119.201 78.653 120.035 77.9469 120.995 77.4546C121.465 77.1487 122.004 76.966 122.563 76.9232C123.122 76.8803 123.683 76.9789 124.194 77.2096C124.705 77.4403 125.15 77.7959 125.487 78.2436C125.825 78.6913 126.045 79.2167 126.126 79.7715C126.608 81.6842 126.126 84.2966 126.841 84.2966C127.246 84.3899 127.432 83.8923 127.541 83.5968C127.991 82.1641 128.092 80.6448 127.837 79.1651C127.617 77.9379 126.95 76.8358 125.965 76.0718C124.98 75.3078 123.746 74.9361 122.503 75.0288C119.782 75.2309 116.765 78.0455 115.863 81.2488C115.346 82.7151 115.291 84.3047 115.705 85.8034C116.119 87.302 116.983 88.6376 118.18 89.6302Z" fill="#402604"/>
<path d="M152.546 88.7283C150.526 89.6691 148.882 91.2633 147.881 93.2533C147.764 93.4564 147.706 93.6873 147.71 93.9212C147.715 94.1552 147.784 94.3834 147.908 94.5814C148.033 94.7795 148.209 94.9399 148.418 95.0457C148.626 95.1514 148.86 95.1983 149.093 95.1815C150.648 95.1815 154.427 91.8538 154.629 90.2366C154.664 89.9753 154.627 89.7094 154.523 89.4672C154.419 89.2251 154.251 89.0156 154.037 88.861C153.824 88.7064 153.572 88.6125 153.31 88.5891C153.047 88.5657 152.783 88.6138 152.546 88.7283Z" fill="#402604"/>
<path d="M146.17 79.0562C150.617 76.5682 154.101 79.4605 156.138 80.3624C156.542 80.5646 156.946 80.8756 157.35 80.4713C157.755 80.067 157.35 79.5694 157.039 79.1651C153.292 75.1998 147.165 75.7752 145.455 77.8433C145.297 77.9815 145.199 78.1754 145.182 78.3843C145.164 78.5931 145.229 78.8006 145.361 78.9629C145.501 79.4605 145.797 79.305 146.17 79.0562Z" fill="#402604"/>
<path d="M121.523 79.7715C120.621 80.0514 121.523 81.0777 121.632 81.7774C121.741 82.4772 122.13 83.4879 120.621 83.3324C120.217 83.2391 119.813 83.3324 119.719 83.8456C119.626 84.3587 120.124 84.5453 120.528 84.5453C120.791 84.5304 121.055 84.5728 121.3 84.6697C121.545 84.7665 121.766 84.9155 121.948 85.1063C122.13 85.2971 122.268 85.5251 122.353 85.7746C122.438 86.0241 122.468 86.2891 122.441 86.5513C122.431 86.723 122.487 86.8919 122.596 87.0244C122.706 87.1569 122.861 87.2434 123.032 87.2666C124.587 87.2666 123.762 82.8815 123.032 81.3265C122.736 80.6734 122.534 79.4449 121.523 79.7715Z" fill="#402604"/>
<path d="M205.727 167.94C205.869 168.137 206.042 168.311 206.24 168.453C206.831 168.453 206.939 168.453 207.142 168.344C212.677 166.789 218.322 165.125 223.951 163.679C225.273 163.384 224.558 162.777 224.262 162.264C222.707 159.652 220.934 157.133 219.333 154.489C218.82 153.681 218.322 153.681 217.513 153.976C213.222 155.64 213.75 155.22 201.093 159.916C200.688 160.025 199.693 160.025 200.393 160.927C202.15 163.368 204.078 165.639 205.727 167.94ZM202.15 160.538C206.411 159.076 218.198 154.738 217.856 154.894C218.462 154.691 218.664 155.205 218.866 155.5C219.473 156.417 222.396 160.942 223.298 162.249C223.609 162.762 223.609 163.057 223.298 163.259C222.987 163.462 207.748 167.645 207.592 167.691C207.291 167.793 206.965 167.801 206.659 167.712C206.353 167.623 206.082 167.442 205.882 167.194C204.56 165.374 203.161 163.664 201.855 161.953C201.404 161.347 200.906 160.958 202.15 160.538Z" fill="#402604"/>
<path d="M267.973 260.151C264.754 259.405 261.753 258.13 258.643 257.135C256.528 256.419 254.414 255.813 252.19 255.113C250.775 255.72 249.266 256.326 247.758 256.933C247.261 257.135 246.452 257.337 246.545 258.037C246.639 258.736 247.261 258.845 247.758 259.047C250.868 260.354 253.807 261.862 257.088 263.075C257.819 263.387 258.631 263.458 259.405 263.277C262.192 262.266 265.108 261.654 268.066 261.458C268.471 261.458 269.077 261.364 269.077 260.758C269.077 260.151 268.377 260.245 267.973 260.151ZM264.241 260.96C262.454 261.804 260.463 262.117 258.503 261.862C258.126 261.858 257.753 261.789 257.399 261.66C256.591 261.458 255.844 261.256 255.082 261.053C254.678 260.96 254.382 260.758 253.978 260.649C252.967 260.245 251.863 259.747 250.868 259.25C249.873 258.752 249.313 258.534 248.349 258.13C249.36 257.228 251.07 257.228 251.77 255.922C251.939 255.963 252.111 255.994 252.283 256.015C253.232 256.497 263.479 260.136 264.568 260.447C264.661 260.447 264.661 260.649 264.863 260.851C264.65 260.83 264.435 260.868 264.241 260.96Z" fill="#402604"/>
<path d="M248.8 264.086C239.672 260.602 241.429 261.458 240.45 260.976H240.341C240.045 260.867 239.641 260.774 239.346 260.665C237.966 261 236.614 261.441 235.303 261.986C234.914 262.189 234.401 262.282 234.307 262.982C234.316 263.241 234.409 263.49 234.572 263.692C234.734 263.894 234.958 264.037 235.209 264.101C237.215 265.205 239.346 266.216 241.352 267.32C241.91 267.707 242.57 267.922 243.25 267.939C243.93 267.956 244.6 267.773 245.177 267.413C246.39 266.807 247.696 266.418 249.002 265.858C249.515 265.656 250.215 265.656 250.122 264.848C249.974 264.629 249.778 264.446 249.549 264.314C249.32 264.182 249.064 264.104 248.8 264.086ZM243.264 266.605C243.17 266.65 243.066 266.674 242.961 266.674C242.856 266.674 242.752 266.65 242.658 266.605C241.818 266.138 239.097 264.894 238.537 264.474C238.072 264.291 237.629 264.056 237.215 263.775C236.763 263.575 236.326 263.341 235.909 263.075C235.895 263.075 235.882 263.072 235.869 263.067C235.857 263.061 235.846 263.053 235.837 263.042C235.828 263.032 235.821 263.02 235.818 263.007C235.814 262.993 235.813 262.98 235.816 262.966L236.718 262.36C239.688 260.634 241.507 262.5 243.171 263.168C243.466 263.277 243.777 263.479 244.073 263.573C244.368 263.666 246.654 264.568 247.292 264.785C245.69 265.594 244.508 266.092 243.295 266.605H243.264Z" fill="#402604"/>
<path d="M222.365 260.96C221.759 260.152 220.95 259.856 220.343 260.649C219.737 261.442 219.348 261.162 218.788 261.256C216.933 261.432 215.176 262.17 213.75 263.37C212.195 264.925 213.268 267.102 216.378 267.102C218.398 267.029 220.327 266.241 221.821 264.879C222.352 264.39 222.697 263.732 222.796 263.017C222.896 262.302 222.743 261.575 222.365 260.96ZM220.654 263.168C220.546 263.277 220.452 263.479 220.343 263.573C219.276 264.524 217.939 265.122 216.518 265.283C215.912 265.19 215.305 265.392 215.119 264.785C214.932 264.179 215.616 264.179 216.021 263.884C217.214 263.234 218.506 262.788 219.846 262.562C220.141 262.562 220.546 262.468 220.654 262.764V262.873C220.81 262.873 220.639 263.075 220.639 263.168H220.654Z" fill="#402604"/>
<path d="M233.126 269.015C226.906 266.154 225.77 265.283 225.164 265.485C223.609 266.2 222.241 266.9 220.732 267.6C220.235 267.911 220.235 268.315 220.639 268.72C222.368 270.482 224.572 271.703 226.983 272.234C229.098 271.627 231.104 271.036 233.126 270.321C234.136 270.026 234.027 269.435 233.126 269.015ZM227.185 270.928C225.356 270.302 223.624 269.422 222.038 268.315C222.038 268.315 225.024 266.916 225.148 266.9C225.276 266.846 225.414 266.819 225.553 266.819C225.692 266.819 225.829 266.846 225.957 266.9C226.252 267.102 226.548 267.196 226.859 267.398C227.601 267.857 228.376 268.262 229.176 268.611L230.731 269.513C229.512 269.885 228.326 270.359 227.185 270.928Z" fill="#402604"/>
<path d="M228.196 262.468C228.524 262.533 228.857 262.564 229.191 262.562C230.732 262.638 232.263 262.294 233.623 261.567C234.634 260.851 235.645 260.012 235.178 258.643C234.618 256.606 232.301 257.757 232.659 257.632C230.544 256.419 228.834 257.539 227.123 258.643C226.609 258.869 226.183 259.256 225.91 259.747C225.814 259.933 225.756 260.136 225.74 260.344C225.724 260.553 225.75 260.762 225.817 260.96C226.041 261.403 226.38 261.776 226.799 262.042C227.218 262.307 227.701 262.455 228.196 262.468ZM227.994 259.949C229.394 259.047 230.809 258.037 232.659 258.534C232.955 258.643 233.452 258.441 233.561 258.845C233.67 259.25 233.359 259.545 232.955 259.856C231.869 260.468 230.666 260.844 229.425 260.96L228.119 260.649C227.59 260.556 227.59 260.151 227.994 259.949Z" fill="#402604"/>
<path d="M241.585 258.534C243.234 258.449 244.816 257.851 246.11 256.824C246.374 256.611 246.579 256.334 246.706 256.02C246.833 255.705 246.878 255.364 246.836 255.027C246.793 254.691 246.666 254.371 246.466 254.097C246.265 253.824 245.998 253.606 245.69 253.465C242.829 252.19 236.702 253.9 238.739 257.29C239.377 258.239 240.481 258.332 241.585 258.534ZM241.087 254.818C241.987 254.258 243.07 254.074 244.104 254.305C244.399 254.414 245.006 254.414 245.006 254.911V255.02C245.01 255.123 244.985 255.224 244.932 255.313C244.88 255.401 244.803 255.472 244.71 255.518C244.663 255.58 244.602 255.631 244.532 255.666C244.462 255.701 244.384 255.719 244.306 255.72C243.46 256.255 242.491 256.565 241.491 256.622C240.776 256.622 240.076 256.73 239.936 255.813C239.874 255.222 240.574 255.113 241.025 254.818H241.087Z" fill="#402604"/>
<path d="M90.9053 195.93C88.3893 195.814 85.8681 195.95 83.3791 196.334C79.4969 196.673 75.7058 197.7 72.1831 199.367C71.945 199.465 71.7245 199.602 71.53 199.771C71.219 200.02 70.9546 200.144 70.8613 200.486C70.8311 200.589 70.8238 200.697 70.8399 200.802C70.8559 200.908 70.895 201.009 70.9543 201.098C71.0136 201.187 71.0918 201.262 71.1832 201.317C71.2746 201.373 71.377 201.408 71.4833 201.419C71.7097 201.407 71.9269 201.326 72.1053 201.186C74.6244 199.382 85.3384 197.532 88.2462 197.298C89.2802 197.346 90.2932 196.996 91.0763 196.319C91.1062 196.285 91.1258 196.244 91.1329 196.2C91.1399 196.156 91.134 196.11 91.116 196.069C91.098 196.028 91.0685 195.993 91.0311 195.969C90.9938 195.944 90.9501 195.931 90.9053 195.93Z" fill="#402604"/>
<path d="M77.9211 192.027C78.7297 191.887 90.0656 193.411 89.9101 193.411C89.9454 193.41 89.9801 193.401 90.0114 193.384C90.0427 193.368 90.0698 193.345 90.0908 193.316C90.1118 193.288 90.126 193.255 90.1324 193.22C90.1388 193.185 90.1372 193.15 90.1278 193.115C89.9257 192.291 89.2415 192.089 88.7128 191.918C86.3207 191.199 83.8517 190.765 81.3576 190.627C80.3216 190.574 79.2836 190.574 78.2476 190.627C76.9881 190.627 76.7859 191.56 77.1591 191.903C77.269 191.978 77.3943 192.029 77.5261 192.05C77.6579 192.072 77.7928 192.064 77.9211 192.027Z" fill="#402604"/>
<path d="M35.0808 189.601C31.862 175.731 30.5869 171.237 27.7101 161.425C25.0355 152.281 25.0977 151.41 23.5272 149.995C23.4948 149.966 23.4549 149.947 23.412 149.939C23.369 149.931 23.3248 149.936 23.2844 149.952C23.2439 149.968 23.2087 149.995 23.183 150.031C23.1572 150.066 23.1417 150.107 23.1384 150.151C23.0296 151.441 23.8537 152.452 24.1492 153.541C26.3573 162.187 29.4984 170.646 31.3022 179.323C33.3081 188.995 36.1382 198.465 37.5222 208.308C37.8017 209.831 38.1862 211.332 38.6729 212.802C38.8284 213.315 39.0772 213.766 39.6214 213.641C40.4145 213.47 40.3989 212.086 40.1968 211.636C38.393 201.559 39.9169 210.407 35.0808 189.601Z" fill="#402604"/>
<path d="M23.325 145.999C20.0906 143.9 13.995 143.76 11.5537 146.932C11.4177 147.033 11.3141 147.171 11.2555 147.33C11.197 147.489 11.186 147.661 11.224 147.826C11.2619 147.991 11.3471 148.142 11.4692 148.259C11.5913 148.376 11.7449 148.456 11.9113 148.487C12.4711 148.487 13.2175 146.652 17.1672 146.419C19.0195 146.409 20.8616 146.692 22.6253 147.259C25.1133 147.943 24.3669 146.73 23.325 145.999Z" fill="#402604"/>
<path d="M264.07 229.456C263.946 229.083 263.93 228.507 263.588 228.601C249.888 231.959 249.484 231.711 249.733 232.146C249.857 232.395 249.857 232.97 250.199 232.877C254.693 231.788 259.529 231.073 263.915 229.767C263.946 229.758 263.976 229.743 264.001 229.722C264.027 229.701 264.047 229.675 264.062 229.646C264.077 229.617 264.085 229.585 264.086 229.552C264.088 229.519 264.082 229.486 264.07 229.456Z" fill="#402604"/>
<path d="M245.457 232.162C244.603 231.947 243.725 231.843 242.844 231.851C241.398 231.757 238.988 231.493 235.069 231.213C235.023 231.214 234.978 231.229 234.94 231.254C234.901 231.28 234.87 231.315 234.851 231.357C234.832 231.399 234.824 231.446 234.83 231.492C234.836 231.538 234.854 231.581 234.883 231.617C235.474 232.163 236.228 232.502 237.029 232.581C239.859 232.986 242.689 232.721 245.348 233.577C246.592 233.981 246.499 232.644 245.457 232.162Z" fill="#402604"/>
<path d="M248.271 234.043C248.271 233.561 247.4 233.748 247.4 235.598C247.229 238.708 247.774 241.009 247.665 241.725C247.626 241.863 247.617 242.008 247.638 242.15C247.66 242.292 247.711 242.428 247.789 242.549C247.953 242.667 248.154 242.721 248.354 242.701C248.555 242.681 248.741 242.588 248.878 242.44C249.235 241.958 248.924 242.378 248.271 234.043Z" fill="#402604"/>
</svg>
